<?xml version="1.0" encoding="UTF-8" standalone="no"?>
<!-- Generator: Adobe Illustrator 21.0.0, SVG Export Plug-In . SVG Version: 6.00 Build 0)  -->

<svg
   xmlns:dc="http://purl.org/dc/elements/1.1/"
   xmlns:cc="http://creativecommons.org/ns#"
   xmlns:rdf="http://www.w3.org/1999/02/22-rdf-syntax-ns#"
   xmlns:svg="http://www.w3.org/2000/svg"
   xmlns="http://www.w3.org/2000/svg"
   xmlns:xlink="http://www.w3.org/1999/xlink"
   xmlns:sodipodi="http://sodipodi.sourceforge.net/DTD/sodipodi-0.dtd"
   xmlns:inkscape="http://www.inkscape.org/namespaces/inkscape"
   version="1.1"
   id="Layer_1"
   x="0px"
   y="0px"
   width="1000"
   height="802.27972"
   viewBox="0 0 1000 802.27972"
   xml:space="preserve"
   inkscape:version="0.48.5 r10040"
   sodipodi:docname="family.svg"
   inkscape:export-filename="C:\Users\Danny\Desktop\carevoice\family.png"
   inkscape:export-xdpi="90"
   inkscape:export-ydpi="90"><metadata
   id="metadata695"><rdf:RDF><cc:Work
       rdf:about=""><dc:format>image/svg+xml</dc:format><dc:type
         rdf:resource="http://purl.org/dc/dcmitype/StillImage" /><dc:title></dc:title></cc:Work></rdf:RDF></metadata><defs
   id="defs693"><linearGradient
   id="linearGradient5607"
   inkscape:collect="always"><stop
     id="stop5609"
     offset="0"
     style="stop-color:#3aa1ff;stop-opacity:1" /><stop
     id="stop5611"
     offset="1"
     style="stop-color:#f8ccfc;stop-opacity:1" /></linearGradient><linearGradient
   inkscape:collect="always"
   id="linearGradient4416"><stop
     style="stop-color:#ccffcc;stop-opacity:1;"
     offset="0"
     id="stop4418" /><stop
     style="stop-color:#ccffcc;stop-opacity:0;"
     offset="1"
     id="stop4420" /></linearGradient>
	
	
	

		
		
		
		
	
			
			
			
			
			
		
			
			
			
			
			
			
			
			
			
			
			
			
			
			
			
			
			
			
			
			
			
			
			
			
			
			
			
			
			
			
			
			
			
			
			
			
			
			
			
			
			
			
			
			
			
			
			
			
			
			
			
			
			
			
			
			
			
			
			
			
			
			
			
			
			
			
			
			
			
			
			
			
			
		<linearGradient
   inkscape:collect="always"
   xlink:href="#linearGradient4416"
   id="linearGradient4422"
   x1="290.75439"
   y1="161.38792"
   x2="1317.0482"
   y2="886.54321"
   gradientUnits="userSpaceOnUse" /><linearGradient
   inkscape:collect="always"
   xlink:href="#linearGradient5607"
   id="linearGradient4837"
   x1="479.72028"
   y1="235.94406"
   x2="1101.3986"
   y2="735.24475"
   gradientUnits="userSpaceOnUse" /></defs><sodipodi:namedview
   pagecolor="#82e1ff"
   bordercolor="#666666"
   borderopacity="1"
   objecttolerance="10"
   gridtolerance="10"
   guidetolerance="10"
   inkscape:pageopacity="0"
   inkscape:pageshadow="2"
   inkscape:window-width="1536"
   inkscape:window-height="803"
   id="namedview691"
   showgrid="false"
   inkscape:zoom="0.20428572"
   inkscape:cx="546.78862"
   inkscape:cy="35.394261"
   inkscape:window-x="-8"
   inkscape:window-y="-8"
   inkscape:window-maximized="1"
   inkscape:current-layer="Layer_1"
   fit-margin-bottom="-180"
   fit-margin-top="0"
   fit-margin-left="0"
   fit-margin-right="0" />
<style
   type="text/css"
   id="style3">
	.st0{fill-rule:evenodd;clip-rule:evenodd;fill:#FFFFFF;}
	.st1{fill-rule:evenodd;clip-rule:evenodd;fill:#CFB39D;}
	.st2{fill-rule:evenodd;clip-rule:evenodd;fill:#FFCC99;}
	.st3{fill-rule:evenodd;clip-rule:evenodd;fill:#B36632;}
	.st4{fill-rule:evenodd;clip-rule:evenodd;fill:#991A1E;}
	.st5{fill-rule:evenodd;clip-rule:evenodd;fill:#FCD1C0;}
	.st6{fill-rule:evenodd;clip-rule:evenodd;fill:#ED3D43;}
	.st7{fill-rule:evenodd;clip-rule:evenodd;fill:#E6E6E6;}
	.st8{fill-rule:evenodd;clip-rule:evenodd;fill:#CCFFCC;}
	.st9{fill-rule:evenodd;clip-rule:evenodd;fill:#B3E6B3;}
	.st10{fill-rule:evenodd;clip-rule:evenodd;fill:#FF9A57;}
	.st11{fill-rule:evenodd;clip-rule:evenodd;fill:#845939;}
	.st12{fill-rule:evenodd;clip-rule:evenodd;fill:#254A70;}
	.st13{fill-rule:evenodd;clip-rule:evenodd;fill:#FF9999;}
	.st14{fill-rule:evenodd;clip-rule:evenodd;fill:#BD6666;}
	.st15{fill-rule:evenodd;clip-rule:evenodd;fill:#D17777;}
	.st16{fill-rule:evenodd;clip-rule:evenodd;fill:#336699;}
	.st17{fill-rule:evenodd;clip-rule:evenodd;fill:#619C99;}
	.st18{fill-rule:evenodd;clip-rule:evenodd;fill:#D1FFFD;}
	.st19{fill-rule:evenodd;clip-rule:evenodd;fill:#8AC2BF;}
	.st20{fill-rule:evenodd;clip-rule:evenodd;fill:#666666;}
	.st21{fill-rule:evenodd;clip-rule:evenodd;fill:#999999;}
	.st22{fill-rule:evenodd;clip-rule:evenodd;fill:#808080;}
</style>
<rect
   style="fill:#ffffff;fill-opacity:0;fill-rule:evenodd"
   y="-2.0605469e-006"
   x="0"
   id="rect7"
   height="980"
   width="1400"
   class="st0" />
<g
   inkscape:groupmode="layer"
   id="layer2"
   inkscape:label="Layer"
   style="display:none"
   transform="translate(0,-2.0605469e-6)"><path
     style="fill:url(#linearGradient4422);fill-opacity:1;stroke:#000000;stroke-width:1px;stroke-linecap:butt;stroke-linejoin:miter;stroke-opacity:1"
     d="M 235.37261,48.893657 C 1360.3152,50.624338 1360.3152,47.162976 1360.3152,47.162976 l -3.4613,901.684764 -1149.17219,-8.6534 z"
     id="path4414"
     inkscape:connector-curvature="0" /></g><g
   inkscape:groupmode="layer"
   id="layer3"
   inkscape:label="family"
   transform="translate(0,-2.0605469e-6)" /><g
   inkscape:groupmode="layer"
   id="layer1"
   inkscape:label="picture"
   style="display:inline"
   transform="translate(0,-2.0605469e-6)"><g
     id="g4399"
     transform="translate(-333.28671,-8)"><path
       class="st17"
       d="m 1039.4,179.3 c 27.3,8.5 222.6,101.9 229.8,88.5 8.9,-16.6 18.9,-154 6.6,-163.6 -17.9,-14.1 -270.5,-109.6 -266.7,-74.4 5.2,48 -31.2,130.3 30.3,149.5 z"
       id="path95"
       inkscape:connector-curvature="0"
       style="fill:#619c99;fill-rule:evenodd" /><path
       class="st18"
       d="m 1049.5,176 c 24.6,7.7 200.7,91.8 207.1,79.8 8,-15 17,-138.8 6,-147.5 -16.2,-12.7 -243.8,-98.8 -240.4,-67.1 4.7,43.3 -28.1,117.5 27.3,134.8 z"
       id="path97"
       inkscape:connector-curvature="0"
       style="fill:#d1fffd;fill-rule:evenodd" /><path
       class="st17"
       d="m 1185.1,134.2 c -13.4,-17.1 -96,20.5 -104.3,45.8 -0.9,2.8 -1.7,5.3 -2.4,7.7 44.2,19.1 122.8,54.8 159.1,65.9 -3.2,-14.7 -10.8,-32.9 -12.8,-37.5 -16.5,-37 -12.8,-47.7 -39.6,-81.9 z"
       id="path99"
       inkscape:connector-curvature="0"
       style="fill:#619c99;fill-rule:evenodd" /><path
       class="st19"
       d="m 1167,226.3 c -2.7,-32.3 -33.2,-149.9 -78.7,-149.9 -14.9,0 -44.6,14.5 -71,33.6 -2,29.5 1.7,56.4 32.3,65.9 12.8,4.1 67.4,29.2 117.4,50.4 z"
       id="path101"
       inkscape:connector-curvature="0"
       style="fill:#8ac2bf;fill-rule:evenodd" /><path
       class="st0"
       d="m 1234.3,117.9 c -16.6,-9.7 -27.2,18.6 -8.3,22.3 18.1,3.5 11.5,-20.4 8.3,-22.3 z"
       id="path103"
       inkscape:connector-curvature="0"
       style="fill:#ffffff;fill-rule:evenodd" /></g></g><path
   class="st2"
   d="m 452.51329,972 187.52727,104.021 c 0,0 130.93703,-55.1958 229.37273,-187.821 97.1,-82.5 167.30001,-70.8 65.1,-142.6 -40.3,-28.3 -254.7,-152.3 -294.5,-169.4 -149.4,-64.2 -139.2,-76.3 -229.7,-117.2 -89.3,15.1 -321.800001,231.5 -388.700001,235.2 0,73.7 78.500001,98.1 134.300001,131.3 106,62.9 195.3,103 296.6,146.5 z"
   id="path13"
   inkscape:connector-curvature="0"
   style="fill:#faeca6;fill-opacity:1;fill-rule:evenodd"
   sodipodi:nodetypes="ccccccccc" /><path
   style="fill:#b36632;fill-rule:evenodd"
   inkscape:connector-curvature="0"
   id="path17"
   d="m 627.81329,682.5 c 2.8,-5.3 0.3,-11.7 -6.7,-11.7 -10.1,0 -25.7,13.8 -31.4,22.3 -1.6,2.4 -2.2,12.9 4.6,13.7 9.9,1.3 29.1,-16.3 33.5,-24.3 z"
   class="st3" /><path
   style="fill:#b36632;fill-rule:evenodd"
   inkscape:connector-curvature="0"
   id="path19"
   d="m 593.61329,668.8 c 2.8,-5.3 0.3,-11.7 -6.7,-11.7 -10.1,0 -25.7,13.8 -31.4,22.3 -1.6,2.4 -2.2,12.9 4.6,13.7 10,1.3 29.2,-16.2 33.5,-24.3 z"
   class="st3" /><path
   style="fill:#991a1e;fill-rule:evenodd"
   inkscape:connector-curvature="0"
   id="path21"
   d="m 681.41329,727.2 c 13.1,-17.2 -8.6,-17.8 -17.1,-14.3 -7.4,3.1 -25.7,12.5 -25.7,20.7 0,3.8 2.6,8.6 6.7,9.2 10.3,1.6 30.9,-8.8 36.1,-15.6 z"
   class="st4" /><path
   style="fill:#fcd1c0;fill-rule:evenodd"
   inkscape:connector-curvature="0"
   id="path23"
   d="m 661.11329,734.1 c 11.7,-5.3 18.3,-8.7 16.4,-23.5 -0.9,-7.4 -3.8,-7.3 -10.3,-7.6 -0.4,0 -2,1 -2,1.4 0,6.9 -3.6,12.8 -9,16.7 -3.8,2.7 -11.3,4.7 -10,11.2 1.5,7.4 10.4,3.8 14.9,1.8 z"
   class="st5" /><path
   style="fill:#ed3d43;fill-rule:evenodd"
   inkscape:connector-curvature="0"
   id="path25"
   d="m 670.01329,735.7 c 0,-0.3 0,-0.5 -0.1,-0.8 -0.4,-4.2 -3.2,-8.3 -6.3,-10.8 -2.5,-2.1 -7,-3.9 -11.5,-5 -6.9,4.2 -13.5,9.6 -13.5,14.5 0,3.8 2.6,8.6 6.7,9.2 6.3,1 16.5,-2.6 24.7,-7.1 z"
   class="st6" /><path
   style="fill:#991a1e;fill-rule:evenodd"
   inkscape:connector-curvature="0"
   id="path27"
   d="m 719.71329,745.4 c 13.1,-17.2 -8.6,-17.8 -17.1,-14.3 -7.4,3.1 -25.7,12.5 -25.7,20.7 0,3.8 2.6,8.6 6.7,9.2 10.2,1.6 30.9,-8.8 36.1,-15.6 z"
   class="st4" /><path
   style="fill:#fcd1c0;fill-rule:evenodd"
   inkscape:connector-curvature="0"
   id="path29"
   d="m 699.41329,752.3 c 11.7,-5.3 18.3,-8.7 16.4,-23.5 -0.9,-7.4 -3.8,-7.3 -10.3,-7.6 -0.4,0 -2,1 -2,1.4 0,6.9 -3.6,12.8 -9,16.7 -3.8,2.7 -11.3,4.7 -10,11.2 1.5,7.4 10.4,3.9 14.9,1.8 z"
   class="st5" /><path
   style="fill:#ed3d43;fill-rule:evenodd"
   inkscape:connector-curvature="0"
   id="path31"
   d="m 708.31329,754 c 0,-0.3 0,-0.5 -0.1,-0.8 -0.4,-4.2 -3.2,-8.3 -6.3,-10.8 -2.5,-2.1 -7,-3.9 -11.5,-5 -6.9,4.2 -13.5,9.6 -13.5,14.5 0,3.8 2.6,8.6 6.7,9.2 6.3,0.9 16.5,-2.7 24.7,-7.1 z"
   class="st6" /><rect
   style="fill:#e6e6e6;fill-rule:evenodd"
   id="rect33"
   height="202.60001"
   width="12.5"
   class="st7"
   y="185.3"
   x="509.4133" /><path
   style="fill:#ccffcc;fill-rule:evenodd"
   inkscape:connector-curvature="0"
   id="path35"
   d="m 505.81329,598.2 c 7.3,1.2 26.8,16.3 32.9,19.2 0.2,0 4.8,2.5 5.2,2.7 24.6,16.5 53.4,28 77.8,44.1 24.4,16.1 174.9,91.2 178.6,95.1 3.4,3.6 58.3,-33 59.6,-34.7 4.9,-6.2 57.5,-33.9 62.5,-35 1.8,-8.7 1.9,-71.5 1.1,-81.7 -1.8,-40 -24.4,-48.3 -40.8,-62.3 -28.1,-24.1 -95.5,-48.7 -132.5,-62 -38.3,-13.8 -131.5,-67.6 -156.7,-73.2 -24.1,-5.4 -9.7,-2.1 -23.6,0.2 -12.9,2.1 -62.8,38.5 -76.5,48 -29.8,21 -23.8,14.1 -27.2,41.5 -2.9,23.3 0.8,47.4 0,67.7 -0.4,12.8 33.5,29.3 39.6,30.4 z"
   class="st8" /><path
   style="fill:#b3e6b3;fill-rule:evenodd"
   inkscape:connector-curvature="0"
   id="path37"
   d="m 737.41329,595 c 17.8,5.4 44.9,16.6 60.2,26.8 41.1,27.5 91.2,7.9 125.4,-21.6 -4.2,-33.3 -24.9,-41.4 -40.1,-54.5 -28.1,-24.1 -95.5,-48.7 -132.5,-62 -38.3,-13.8 -131.5,-67.6 -156.7,-73.2 -24.1,-5.4 -9.7,-2.1 -23.6,0.2 -12.9,2.1 -62.8,38.5 -76.5,48 -9.7,6.8 -15.6,10.7 -19.3,13.8 12,7.1 25.2,13.8 46.1,22 40.8,16 111.8,58.8 149,68.5 12.7,3.4 43.8,24.6 68,32 z"
   class="st9" /><path
   style="fill:#ccffcc;fill-rule:evenodd"
   inkscape:connector-curvature="0"
   id="path39"
   d="m 465.71329,486.6 c 13.9,5.4 30.1,-13.7 44.3,-19.4 13.2,-5.3 72.3,-39 76.8,-50.4 5.5,-14 8.7,-25 9.6,-40 0.4,-6.6 5.7,-18.5 2.6,-20.6 -8.4,-5.5 -26.7,-14.6 -37,-10.7 -34.7,12.9 -89.6,39.6 -117.7,58.5 -12.3,8.3 -9,29.4 -9.7,47.1 -0.8,24.1 12.4,28.3 31.1,35.5 z"
   class="st8" /><path
   style="fill:#b3e6b3;fill-rule:evenodd"
   inkscape:connector-curvature="0"
   id="path41"
   d="m 469.81329,478.3 c 3.9,0 6.3,-33.7 6.5,-36.5 0.9,-13.5 3.8,-16.3 -7.6,-23.8 -7.2,-4.7 -9.3,-2.3 -23.3,-5.9 -5.8,-1.5 -6.8,50.7 0.1,54.9 8.2,4.9 14.6,11.3 24.3,11.3 z"
   class="st9" /><path
   style="fill:#ccffcc;fill-rule:evenodd"
   inkscape:connector-curvature="0"
   id="path43"
   d="m 855.21329,668.3 c 19.3,-9.1 38.8,-18 57.2,-29.1 34.2,-20.7 48.3,-71.6 19.5,-91.1 -22.1,-15 -126.5,49.2 -145.5,63.2 -0.9,2.7 -2.9,25.5 -3.5,29.8 -5.1,36 6.5,28.2 31.8,36.7 15.5,5.1 26.2,-2.8 40.5,-9.5 z"
   class="st8" /><path
   style="fill:#b3e6b3;fill-rule:evenodd"
   inkscape:connector-curvature="0"
   id="path45"
   d="m 820.71329,672.9 c 6.9,-3.1 3.6,-40.4 0.8,-46.4 -3.9,-8.5 -25.2,-18.7 -31,-10.2 -4.4,6.4 -3.7,39.9 -2.3,45.1 1.7,6.7 29.1,13.1 32.5,11.5 z"
   class="st9" /><path
   style="fill:#ccffcc;fill-rule:evenodd"
   inkscape:connector-curvature="0"
   id="path47"
   d="m 697.51329,488 c 5.4,2 98,48.9 105.7,53.7 24.9,15.7 46.5,14.3 66,21.5 36.3,13.5 30.8,-15 38.9,-27.3 7.7,-11.7 28.7,-118.7 28.4,-118.9 -6.2,-5.1 -24.2,-11.1 -28.2,-12.9 -17.8,-8.2 -57.9,-23.3 -76.6,-28.9 -30.4,-9.2 -68.1,-34.5 -93.3,-43 -24.1,-8.2 -45.5,-22.9 -68.1,-33.2 -29.8,-13.7 -46.1,-14.5 -64.4,15.8 -15.8,26 -28.6,75.9 -28.6,105.4 0,0.9 38.1,22.3 40.9,23.8 17.3,9.3 63.9,38.3 79.3,44 z"
   class="st8" /><path
   style="fill:#b3e6b3;fill-rule:evenodd"
   inkscape:connector-curvature="0"
   id="path49"
   d="m 893.21329,567.8 c 9.4,-2.8 31.3,-11.3 33.3,-22.7 4.5,-25.8 20.7,-97.5 18.7,-113.5 -4.1,-33.6 -38.4,-3.5 -45.7,25.6 -5,19.6 -55.5,125.3 -6.3,110.6 z"
   class="st9" /><path
   style="fill:#fcd1c0;fill-rule:evenodd"
   inkscape:connector-curvature="0"
   id="path51"
   d="m 638.61329,571.6 c -10.6,-17.8 -24.2,7.7 -25.7,19.7 -3.7,29.7 -1.3,54 -3.7,81 -0.8,9.2 -12.3,14.1 -12.8,17.7 -2.2,18.2 28.3,-1.5 27.6,-19.3 -0.7,-18.5 2.7,-55.4 6.3,-72.9 1.9,-9.1 11.8,-20.3 8.3,-26.2 z"
   class="st5" /><path
   style="fill:#ff9a57;fill-rule:evenodd"
   inkscape:connector-curvature="0"
   id="path53"
   d="m 616.51329,695.3 c -0.6,-2 -1.4,-3.6 -2.5,-4.5 -4.4,-3.9 -9.5,-7.1 -15.3,-7.9 -3.8,3.5 -7.1,7.2 -9.2,10.3 -1.6,2.4 -2.2,12.9 4.6,13.7 6,0.7 15.1,-5.1 22.4,-11.6 z"
   class="st10" /><path
   style="fill:#fcd1c0;fill-rule:evenodd"
   inkscape:connector-curvature="0"
   id="path55"
   d="m 604.51329,557.9 c -10.6,-17.8 -24.2,7.7 -25.7,19.7 -3.7,29.7 -1.3,54 -3.7,81 -0.8,9.2 -12.3,14.1 -12.8,17.7 -2.2,18.2 28.3,-1.5 27.6,-19.3 -0.7,-18.5 2.7,-55.4 6.3,-72.9 1.9,-9.1 11.8,-20.2 8.3,-26.2 z"
   class="st5" /><path
   style="fill:#254a70;fill-rule:evenodd"
   inkscape:connector-curvature="0"
   id="path61"
   d="m 663.51329,588.2 c 6.6,-4.7 10.6,-15.5 11.6,-23.5 3.6,-29.4 22.6,-38 45.4,-58.5 17.4,-15.7 42.6,-99.1 39.5,-125.9 -2.7,-23.6 -42.2,-42.3 -56,-40.6 -50.6,0 -64.4,89 -81.3,120.8 -2.2,4.2 -14.2,27.8 -17.4,28.9 -14.7,15.7 -31,39.4 -31,62 1.1,17.2 56.7,60 89.2,36.8 z"
   class="st12" /><path
   style="fill:#ff9a57;fill-rule:evenodd"
   inkscape:connector-curvature="0"
   id="path63"
   d="m 582.41329,681.6 c -0.6,-2 -1.4,-3.6 -2.5,-4.5 -4.4,-3.9 -9.5,-7.1 -15.3,-7.9 -3.8,3.5 -7.1,7.2 -9.2,10.3 -1.6,2.4 -2.2,12.9 4.6,13.7 6,0.7 15.1,-5.1 22.4,-11.6 z"
   class="st10" /><path
   style="fill:#ff9999;fill-rule:evenodd"
   inkscape:connector-curvature="0"
   id="path65"
   d="m 647.11329,514.5 c 14.1,-4.7 31.3,-21.2 40,-33.3 3.7,-5.2 2.4,-8.3 -1.8,-12.2 -4.5,-4.3 -13.7,-9.4 -19.3,-14.2 -5,-4.2 -17.2,-18.6 -20.4,-20.3 -0.3,-0.2 -1.8,-0.2 -2.1,-0.2 -4.3,0.5 -44.4,5.2 -44.8,5.3 -10.2,27.4 19.1,59.8 41.9,72.6 2,1.1 4.2,2.3 6.5,2.3 z"
   class="st13" /><path
   style="fill:#fcd1c0;fill-rule:evenodd"
   inkscape:connector-curvature="0"
   id="path67"
   d="m 732.21329,518.3 c 3,-0.3 5.9,-0.1 7.4,-3.6 1.7,-4.2 -16.9,-5.6 -17.9,-4.3 0,0 -1.4,1.3 -1.6,1.7 -1.3,2.5 0.8,6.4 4.5,6.3 2.8,-0.1 4.5,0.2 7.6,-0.1 z"
   class="st5" /><path
   style="fill:#bd6666;fill-rule:evenodd"
   inkscape:connector-curvature="0"
   id="path69"
   d="m 684.61329,502.8 c 7.2,-5.2 12.2,-9.7 21.5,-9.7 5,0 8.2,4.6 10,8.6 0.9,1.9 3.8,10.9 4.7,11.4 1.2,0.7 5.4,0.5 5.4,-1.7 0,-8.1 -2.8,-17.5 -6.4,-24.7 -4.2,-8.5 -12.4,-14.3 -22.2,-15 -21.6,-1.5 -32.1,6.3 -39.1,26.1 -0.8,2.3 6.6,10.5 12.6,10.5 8.1,0 7.6,-1.3 13.5,-5.5 z"
   class="st14" /><path
   style="fill:#fcd1c0;fill-rule:evenodd"
   inkscape:connector-curvature="0"
   id="path71"
   d="m 720.21329,531.9 c 3,-0.3 5.9,-0.1 7.4,-3.6 1.7,-4.2 -16.9,-5.6 -17.9,-4.3 0,0 -1.4,1.3 -1.6,1.7 -1.3,2.5 0.8,6.4 4.5,6.3 2.9,0 4.5,0.2 7.6,-0.1 z"
   class="st5" /><path
   style="fill:#d17777;fill-rule:evenodd"
   inkscape:connector-curvature="0"
   id="path73"
   d="m 672.61329,516.5 c 7.2,-5.2 12.2,-9.7 21.5,-9.7 5,0 8.2,4.6 10.1,8.6 0.9,1.9 3.8,10.9 4.7,11.4 1.2,0.7 5.4,0.5 5.4,-1.7 0,-8.1 -2.8,-17.5 -6.4,-24.7 -4.2,-8.5 -12.4,-14.3 -22.2,-15 -21.6,-1.5 -32.1,6.3 -39.1,26.1 -0.8,2.3 6.6,10.5 12.6,10.5 8,0 7.5,-1.3 13.4,-5.5 z"
   class="st15" /><path
   style="fill:#fcd1c0;fill-rule:evenodd"
   inkscape:connector-curvature="0"
   id="path75"
   d="m 652.81329,439.5 c 14,-17.6 12.4,-55.6 -0.1,-71.6 -7.9,-10.1 -11.4,-1.3 -9.4,1.7 2.6,3.9 -1,4.9 5.7,6.9 14.4,4.1 -10.3,45.6 -13.6,51.8 -10.6,8.5 5.1,26.6 17.4,11.2 z"
   class="st5" /><path
   style="fill:#ff9999;fill-rule:evenodd"
   inkscape:connector-curvature="0"
   id="path77"
   d="m 652.81329,439.5 c 4.4,-5.5 7.2,-13 8.7,-21.2 -4,-0.2 -9.8,-0.1 -14,-2.8 -1.4,-0.9 -2.6,-1.9 -3.8,-2.9 -3.7,7.3 -7.2,13.5 -8.3,15.5 -10.6,8.7 5.1,26.8 17.4,11.4 z"
   class="st13" /><path
   style="fill:#ffffff;fill-rule:evenodd"
   inkscape:connector-curvature="0"
   id="path79"
   d="m 625.61329,454.6 c 2,-2.2 9.6,-11.7 5.3,-13.9 -3.3,-1.7 -13.7,-2.7 -16.7,0.8 0,0 -1,0.8 -1,0.9 0.2,0.9 10.4,14.3 12.4,12.2 z"
   class="st0" /><path
   style="fill:#ffffff;fill-rule:evenodd"
   inkscape:connector-curvature="0"
   id="path81"
   d="m 645.01329,446.1 c 0.2,-1.9 -0.9,-12.1 -2.9,-12.4 -2.9,-0.5 -4.5,-1 -5.9,1.2 -1.3,2.1 -2.3,4.4 -3.7,6.8 -2.1,3.2 12.2,7.4 12.5,4.4 z"
   class="st0" /><path
   style="fill:#336699;fill-rule:evenodd"
   inkscape:connector-curvature="0"
   id="path83"
   d="m 807.31329,590.4 c 11.9,-7.1 12.4,-7.2 22.6,-16.4 6.5,-5.8 12.9,-23.1 7.3,-30.9 -6.9,-9.5 -78.9,-22.4 -89.8,-15 -77.6,52.5 -76.2,132.2 -84.5,173 -0.6,3 -2,7.7 1.8,8.9 3.1,0.9 15.4,3.4 16,-1.5 6.1,-49.7 37.5,-115.9 76.7,-147.6 5.2,-4.2 8.1,-4.8 16.3,-0.6 5.1,2.5 -14.1,16.4 -16.7,18.9 -28,26 -41.3,40.9 -53.8,111.5 -1.2,6.5 -2.1,14.3 -2.1,23.6 0,2.1 0,4.3 0,6.4 -0.3,3.5 -1,8.7 1.7,11.2 2.9,2.6 14.3,5.9 14,-0.9 -0.2,-5.3 2.3,-23.2 3.4,-28.6 12.8,-61.4 37.7,-82.8 87.1,-112 z"
   class="st16" /><path
   style="fill:#ed3d43;fill-rule:evenodd"
   inkscape:connector-curvature="0"
   id="path85"
   d="m 847.61329,553.7 c 10.8,-22.8 32.1,-55.1 38.8,-79.2 5.8,-21 8.4,-21.4 1.3,-44.4 -4.1,-13.4 -53.1,-29.1 -54.4,-28.9 -12.2,0 -24.5,9.2 -34,16.1 -8.4,6.1 -49.2,91.3 -51.1,99.8 -11.5,49.4 92.6,50.9 99.4,36.6 z"
   class="st6" /><path
   style="fill:#fcd1c0;fill-rule:evenodd"
   inkscape:connector-curvature="0"
   id="path87"
   d="m 853.61329,505.1 c -6,-6 -14.5,-7 -13.2,3.8 1.2,9.5 7.4,9.5 13,11.8 14.8,6.1 34.4,13 50,3.7 65.5,-38.7 -25.2,-146.2 -38.8,-89.7 -6.4,26.6 41.8,25.1 37.5,60.1 -3.1,25.2 -34.3,24.5 -48.5,10.3 z"
   class="st5" /><path
   style="fill:#ed3d43;fill-rule:evenodd"
   inkscape:connector-curvature="0"
   id="path89"
   d="m 895.11329,475 c 5.5,-6 14.4,-10.6 21,-12.1 3.7,-0.9 7.3,-0.1 10.3,1 -14.2,-39.3 -56.1,-69.6 -65.5,-30.6 -5,21.2 20.5,26.6 34.2,41.7 z"
   class="st6" /><path
   style="fill:#fcd1c0;fill-rule:evenodd"
   inkscape:connector-curvature="0"
   id="path91"
   d="m 748.71329,426.8 c 0,-20.2 15.8,-23.3 32,-17.2 14.5,5.4 26.9,20.5 44.3,17 13.9,-2.8 15.3,-24.2 -2.1,-32.3 -18.2,-8.4 -77.3,-15.5 -89.6,15.3 -3.3,8.3 -1.9,15.9 4,23.6 7.2,9.6 11.4,4.5 11.4,-6.4 z"
   class="st5" /><path
   style="fill:#ed3d43;fill-rule:evenodd"
   inkscape:connector-curvature="0"
   id="path93"
   d="m 825.11329,426.6 c 13.9,-2.8 15.3,-24.2 -2.1,-32.3 -6.2,-2.8 -17,-5.5 -29.1,-6.6 -5.1,5.5 -8.3,14.3 -8.3,21 0,1.1 0,2.1 0.1,3.1 12.5,6.5 24,17.9 39.4,14.8 z"
   class="st6" /><path
   style="fill:#ffcc99;fill-rule:evenodd"
   inkscape:connector-curvature="0"
   id="path105"
   d="m 576.61329,193.2 c 1.2,-10.2 -15.6,-102.200002 -19.3,-107.700002 -8.5,-12.4 -64.1,-12 -71.1,-3 -7.3,9.4 -26,105.000002 -22.1,113.600002 10,22.2 108.9,26 112.5,-2.9 z"
   class="st2" /><path
   style="fill:#e6e6e6;fill-rule:evenodd"
   inkscape:connector-curvature="0"
   id="path123"
   d="m 836.01329,536.9 72.7,-121.9 c 0.1,-0.1 -102.3,5.7 -103.9,3.4 l -39.9,-57.6 -43.2,118.5 26.7,61.3 c 0.5,1 87.5,-3.6 87.6,-3.7 z"
   class="st7" /><path
   style="fill:#fcd1c0;fill-rule:evenodd"
   inkscape:connector-curvature="0"
   id="path125"
   d="m 853.41329,520.7 c 2.8,1.2 5.8,2.3 8.9,3.4 2.8,-3.1 3.2,-7.7 2.4,-11.8 -4.2,-1.7 -8,-4.1 -11.1,-7.2 -6,-6 -14.5,-7 -13.2,3.8 1.2,9.5 7.5,9.5 13,11.8 z"
   class="st5" /><path
   style="fill:#fcd1c0;fill-rule:evenodd"
   inkscape:connector-curvature="0"
   id="path127"
   d="m 745.91329,440.3 c 11.4,3.4 7.7,-16.9 -1.9,-16.9 -5.2,0 -9.8,4.5 -7.6,8.6 1.6,2.8 6.1,7.3 9.5,8.3 z"
   class="st5" /><path
   style="fill:#fcd1c0;fill-rule:evenodd"
   inkscape:connector-curvature="0"
   id="path129"
   d="m 603.81329,462.6 c 18.2,-7.6 5.1,-27.7 -6.1,-19.9 -6.9,1.5 -53.5,13.8 -53.5,-1.1 0,-7 -2,-3.8 -5,-7.3 -2.3,-2.7 -11.7,-1.7 -4.2,8.6 11.9,16.4 48.1,28.3 68.8,19.7 z"
   class="st5" /><path
   style="fill:#ff9999;fill-rule:evenodd"
   inkscape:connector-curvature="0"
   id="path131"
   d="m 583.81329,465.4 c 7.3,0.4 14.3,-0.4 20,-2.8 18.2,-7.6 5.1,-27.7 -6.1,-19.9 -2.2,0.5 -8.3,2 -15.7,3.5 2.5,5.8 2.4,12 1.8,18.8 l 0,0.4 z"
   class="st13" /><path
   style="fill:#fcd1c0;fill-rule:evenodd"
   inkscape:connector-curvature="0"
   id="path147"
   d="m 726.01329,370.1 c 6.6,-6.9 -13.3,-16.1 -20.4,-9.3 -1.7,1.9 -6,13.9 0.8,14.4 7.1,0.6 15,-0.2 19.6,-5.1 z"
   class="st5" /><g
   id="g4215"
   transform="matrix(0.42840197,0,0,0.42644802,286.37677,175.21716)"><path
     id="path61-1"
     d="m 1121.9441,330.99746 -28,-57.4 h -84.6 -6.8 -84.60004 l -28,57.4 c 0,0 -23.4,-2.3 -18.1,20.4 5.3,22.7 22.7,17.4 22.7,17.4 0,0 18.7,78.4 108.00004,80.8 v 0 c 0.7,0 1.5,0 2.2,0 0.4,0 0.8,0 1.2,0 0.4,0 0.8,0 1.2,0 0.7,0 1.5,0 2.2,0 v 0 c 89.3,-2.4 108,-80.8 108,-80.8 0,0 17.4,5.3 22.7,-17.4 5.3,-22.7 -18.1,-20.4 -18.1,-20.4"
     inkscape:connector-curvature="0"
     style="fill:#fbddc9" /><path
     id="path63-7"
     d="m 1065.7441,225.29746 c -0.7,-9.2 -6.8,-46.5 -56.9,-48.7 -64.00004,-2.8 -69.10004,48.3 -69.10004,48.3 7.1,-2.2 14.9,-5.8 22.3,-6.8 -78.6,16.8 -86.5,86.4 -72,112.9 0,0 58.2,-21.9 83.1,-47.6 0,0 121.80004,61.5 148.80004,47.6 l 2.8,0 c 0,-0.1 15,-76.8 -59,-105.7"
     inkscape:connector-curvature="0"
     style="fill:#615d5f" /><path
     id="path65-4"
     d="m 898.04406,368.39746 c 0,5.9 -4.8,10.6 -10.6,10.6 h -2.8 c -5.9,0 -10.6,-4.8 -10.6,-10.6 0,-5.8 4.8,-10.6 10.6,-10.6 h 2.8 c 5.9,0 10.6,4.8 10.6,10.6"
     inkscape:connector-curvature="0"
     style="fill:#b04b40" /><path
     id="path67-0"
     d="m 1138.0441,370.69746 c 0,5.9 -4.8,10.6 -10.6,10.6 h -2.8 c -5.9,0 -10.6,-4.8 -10.6,-10.6 0,-5.9 4.8,-10.6 10.6,-10.6 h 2.8 c 5.8,-0.1 10.6,4.7 10.6,10.6"
     inkscape:connector-curvature="0"
     style="fill:#b04b40" /><path
     id="path69-9"
     d="m 1007.7441,280.29746 c 0,0 64,11.1 98.9,-11.9 0,0 -43,44.5 -98.9,11.9"
     inkscape:connector-curvature="0"
     style="fill:#797375" /><path
     id="path71-4"
     d="m 890.54406,291.39746 c 0,0 41.9,7.7 65,-7.2 0,0 -28.5,29 -65,7.2"
     inkscape:connector-curvature="0"
     style="fill:#797375" /><path
     id="path73-8"
     d="m 1050.8441,300.99746 c 0,0 41.9,7.7 65,-7.2 0,0 -28.5,28.9 -65,7.2"
     inkscape:connector-curvature="0"
     style="fill:#797375" /><path
     id="path75-8"
     d="m 1039.1441,190.19746 c 0,0 17.6,11.6 18.1,27.7 0,0 -2.5,-16 -18.1,-27.7"
     inkscape:connector-curvature="0"
     style="fill:#797375" /><path
     id="path77-2"
     d="m 981.44406,184.49746 c 0,0 -17.6,11.6 -18.1,27.7 0,0 2.4,-16 18.1,-27.7"
     inkscape:connector-curvature="0"
     style="fill:#797375" /><path
     id="path79-4"
     d="m 1022.1441,184.49746 c 0,0 17.6,11.6 18.1,27.7 0.1,0 -2.4,-16 -18.1,-27.7"
     inkscape:connector-curvature="0"
     style="fill:#797375" /><path
     id="path81-5"
     d="m 996.84406,181.69746 c 0,0 -15.9,13.8 -14.3,29.8 0,0 0.3,-16.1 14.3,-29.8"
     inkscape:connector-curvature="0"
     style="fill:#797375" /><path
     id="path83-5"
     d="m 940.54406,220.89746 c 0,0 2.1,-6.9 70.60004,-3 0,0 -59.20004,0.9 -71.40004,7 0,0 0.5,-3 0.8,-4"
     inkscape:connector-curvature="0"
     style="fill:#797375" /><path
     id="path85-1"
     d="m 929.14406,322.09746 c 0,0 17.8,-25.4 41.5,0 0,0 -15.1,-10.3 -41.5,0"
     inkscape:connector-curvature="0"
     style="fill:#797375" /><path
     id="path87-7"
     d="m 964.04406,352.49746 c 0,9.9 -8.4,18 -18.8,18 -10.4,0 -18.8,-8.1 -18.8,-18 0,-9.9 8.4,-18 18.8,-18 10.4,0 18.8,8 18.8,18"
     inkscape:connector-curvature="0"
     style="fill:#ffffff" /><path
     id="path89-1"
     d="m 949.84406,344.59746 c -4.7,0 -8.6,3.6 -8.6,7.9 0,4.4 3.8,7.9 8.6,7.9 4.7,0 8.6,-3.6 8.6,-7.9 0,-4.4 -3.9,-7.9 -8.6,-7.9 z m 3.3,13.8 c -1.3,0 -2.4,-1.3 -2.4,-3 0,-1.6 1.1,-3 2.4,-3 1.3,0 2.4,1.3 2.4,3 0,1.7 -1.1,3 -2.4,3 z"
     inkscape:connector-curvature="0"
     style="fill:#615d5f" /><path
     id="path91-1"
     d="m 1044.1441,352.99746 c 0,9.9 8.4,18 18.8,18 10.4,0 18.8,-8.1 18.8,-18 0,-9.9 -8.4,-18 -18.8,-18 -10.4,0 -18.8,8 -18.8,18"
     inkscape:connector-curvature="0"
     style="fill:#ffffff" /><path
     id="path93-5"
     d="m 1058.3441,345.09746 c -4.7,0 -8.6,3.6 -8.6,7.9 0,4.4 3.8,7.9 8.6,7.9 4.7,0 8.6,-3.6 8.6,-7.9 0,-4.4 -3.9,-7.9 -8.6,-7.9 z m -3.3,13.8 c -1.3,0 -2.4,-1.3 -2.4,-3 0,-1.7 1.1,-3 2.4,-3 1.3,0 2.4,1.3 2.4,3 0,1.7 -1,3 -2.4,3 z"
     inkscape:connector-curvature="0"
     style="fill:#615d5f" /><path
     id="path95-2"
     d="m 981.44406,400.19746 c 0,0 41.10004,11.6 60.70004,0 0,0 -28.3,60 -60.70004,0"
     inkscape:connector-curvature="0"
     style="fill:#7f1328" /></g><g
   id="g4266"
   transform="matrix(0.44991987,-0.13553922,0.13389705,0.4444687,91.051499,460.88871)"><path
     id="path27-7"
     d="m 1176.2416,210.42392 -19.3,-39.6 h -58.3 -4.7 -58.3 l -19.3,39.6 c 0,0 -16.2,-1.6 -12.5,14.1 3.6,15.6 15.6,12 15.6,12 0,0 12.9,54.1 74.5,55.7 v 0 c 0.5,0 1,0 1.5,0 0.3,0 0.6,0 0.8,0 0.3,0 0.6,0 0.8,0 0.5,0 1,0 1.5,0 v 0 c 61.6,-1.7 74.5,-55.7 74.5,-55.7 0,0 12,3.6 15.6,-12 3.8,-15.6 -12.4,-14.1 -12.4,-14.1"
     inkscape:connector-curvature="0"
     style="fill:#fbddc9" /><path
     id="path29-6"
     d="m 1210.7416,173.72392 c -14.4,-3.9 -1.1,-43.1 -28.3,-51.7 -20.8,-6.6 -33.6,18.6 -34,19.3 -9.7,-3.3 -22.6,-3.8 -39.6,0.3 0,0 -41.1,-14 -68.7,1.7 0,0 -15.2,-24.8 -35.6,-16.2 -26.29999,11 -9.49999,48.9 -23.49999,54 0,0 25.89999,1.5 36.69999,-5.7 -2.2,9.4 -2.8,20.9 -1.3,35 0,0 55.2,-3.4 80,-39.6 0,0 9.4,5.9 0,13.3 0,0 15,-2.5 15.5,-13.3 0,0 35.9,43.8 64.5,39.6 0,0 3.5,-19.8 -1.6,-38.6 11.7,5.5 35.9,1.9 35.9,1.9 m -170.7,-30.3 c -0.7,0.4 -1.3,0.8 -1.9,1.2 0.7,-0.5 1.3,-1 1.9,-1.2"
     inkscape:connector-curvature="0"
     style="fill:#615d5f" /><polygon
     id="polygon31"
     points="670.9,219.5 671,235.9 684.9,230 698.7,234.2 698.5,219.7 684.4,225.6 "
     style="fill:#f7941e"
     transform="translate(463.64161,-84.87608)" /><polygon
     id="polygon33"
     points="559.9,220.8 559.9,237.2 573.8,231.2 587.7,235.5 587.5,221 573.4,226.9 "
     style="fill:#f7941e"
     transform="translate(463.64161,-84.87608)" /><path
     id="path35-1"
     d="m 1045.9416,222.32392 c 0,0 -2.7,-14 9.6,-14.7 12.3,-0.7 10,14.7 10,14.7 h -2.9 c 0,0 1.8,-11.1 -7,-11.1 -7.8,0 -6.6,11.1 -6.6,11.1 h -3.1 z"
     inkscape:connector-curvature="0"
     style="fill:#615d5f" /><path
     id="path37-4"
     d="m 1047.0416,213.12392 c 0,0 -5.6,1.4 -5.5,-1.9 0,0 -1.3,3.5 5,3.7"
     inkscape:connector-curvature="0"
     style="fill:#615d5f" /><path
     id="path39-2"
     d="m 1046.5416,217.12392 c 0,0 -6.9,1.8 -6.8,-2.3 0,0 -1.6,4.3 6.1,4.6"
     inkscape:connector-curvature="0"
     style="fill:#615d5f" /><path
     id="path41-3"
     d="m 1141.2416,221.72392 c 0,0 2.7,-14 -9.6,-14.7 -12.3,-0.7 -10,14.7 -10,14.7 h 2.9 c 0,0 -1.8,-11.1 7,-11.1 7.8,0 6.6,11.1 6.6,11.1 h 3.1 z"
     inkscape:connector-curvature="0"
     style="fill:#615d5f" /><path
     id="path43-2"
     d="m 1140.1416,212.52392 c 0,0 5.6,1.4 5.5,-1.9 0,0 1.3,3.5 -5,3.7"
     inkscape:connector-curvature="0"
     style="fill:#615d5f" /><path
     id="path45-2"
     d="m 1140.6416,216.52392 c 0,0 6.9,1.8 6.8,-2.3 0,0 1.6,4.3 -6.1,4.6"
     inkscape:connector-curvature="0"
     style="fill:#615d5f" /><path
     id="path47-1"
     d="m 1110.8416,252.32392 c 0,8.4 -4.9,15.2 -11,15.2 -6.1,0 -11,-6.8 -11,-15.2 0,-8.4 4.9,-15.2 11,-15.2 6.1,0 11,6.9 11,15.2"
     inkscape:connector-curvature="0"
     style="fill:#7f1328" /><path
     id="path137"
     d="m 1155.7416,238.42392 c 0,2.5 -6.2,4.6 -13.8,4.6 -7.6,0 -13.8,-2 -13.8,-4.6 0,-2.5 6.2,-4.6 13.8,-4.6 7.6,0 13.8,2.1 13.8,4.6"
     inkscape:connector-curvature="0"
     style="fill:#f6adcd" /><path
     id="path139"
     d="m 1060.7416,237.22392 c 0,2.5 -6.2,4.6 -13.8,4.6 -7.6,0 -13.8,-2 -13.8,-4.6 0,-2.5 6.2,-4.6 13.8,-4.6 7.6,0 13.8,2.1 13.8,4.6"
     inkscape:connector-curvature="0"
     style="fill:#f6adcd" /></g><g
   id="g4306"
   transform="matrix(0.42602919,0,0,0.43895709,379.3788,166.85384)"><path
     id="path105-6"
     d="m 1238.723,446.82761 -29.3,-60.2 h -88.8 -7.1 -88.8 l -29.20003,60.2 c 0,0 -24.6,-2.4 -19,21.4 5.5,23.8 23.80003,18.2 23.80003,18.2 0,0 19.6,82.2 113.3,84.7 v 0.1 c 0.8,0 1.5,0 2.3,0 0.4,0 0.8,0 1.3,0 0.4,0 0.8,0 1.3,0 0.8,0 1.5,0 2.3,0 v -0.1 c 93.7,-2.5 113.3,-84.7 113.3,-84.7 0,0 18.2,5.5 23.8,-18.2 5.4,-23.7 -19.2,-21.4 -19.2,-21.4"
     inkscape:connector-curvature="0"
     style="fill:#fbddc9" /><path
     id="path107"
     d="m 995.52297,446.82761 c 0,0 91.00003,-7.4 168.20003,-60.2 0,0 6.1,28.7 -11,39.7 0,0 74,35.6 86.2,20.6 0,0 52.2,-158.3 -73.9,-126.8 -0.2,-0.1 -270.30003,-104.9 -169.50003,126.7"
     inkscape:connector-curvature="0"
     style="fill:#615d5f" /><path
     id="path109"
     d="m 1086.823,442.52761 c 0,10.3 -8.7,18.7 -19.5,18.7 -10.8,0 -19.5,-8.4 -19.5,-18.7 0,-10.3 8.7,-18.7 19.5,-18.7 10.8,0 19.5,8.4 19.5,18.7"
     inkscape:connector-curvature="0"
     style="fill:#ffffff" /><path
     id="path111"
     d="m 1072.123,434.32761 c -4.9,0 -8.9,3.7 -8.9,8.2 0,4.6 4,8.2 8.9,8.2 4.9,0 8.9,-3.7 8.9,-8.2 0,-4.5 -4,-8.2 -8.9,-8.2 z m 3.4,14.4 c -1.4,0 -2.5,-1.4 -2.5,-3.1 0,-1.7 1.1,-3.1 2.5,-3.1 1.4,0 2.5,1.4 2.5,3.1 0,1.7 -1.1,3.1 -2.5,3.1 z"
     inkscape:connector-curvature="0"
     style="fill:#615d5f" /><path
     id="path113"
     d="m 1143.023,439.42761 c 0,10.3 8.7,18.7 19.5,18.7 10.8,0 19.5,-8.4 19.5,-18.7 0,-10.3 -8.7,-18.7 -19.5,-18.7 -10.8,0 -19.5,8.4 -19.5,18.7"
     inkscape:connector-curvature="0"
     style="fill:#ffffff" /><path
     id="path115"
     d="m 1157.823,431.22761 c -4.9,0 -8.9,3.7 -8.9,8.2 0,4.6 4,8.2 8.9,8.2 4.9,0 8.9,-3.7 8.9,-8.2 0,-4.5 -4,-8.2 -8.9,-8.2 z m -3.4,14.4 c -1.4,0 -2.5,-1.4 -2.5,-3.1 0,-1.7 1.1,-3.1 2.5,-3.1 1.4,0 2.5,1.4 2.5,3.1 0,1.7 -1.2,3.1 -2.5,3.1 z"
     inkscape:connector-curvature="0"
     style="fill:#615d5f" /><path
     id="path117"
     d="m 1086.823,520.02761 c 0,0 31.5,16.8 69.8,-2.5 0,0 -30.9,60.9 -69.8,2.5"
     inkscape:connector-curvature="0"
     style="fill:#7f1328" /><path
     id="path119"
     d="m 1104.623,491.52761 c 0,0 -17.4,19.6 -28,8.2 0,0 2.8,8.6 13.1,9 16.7,0.7 44,3.1 55.1,-0.2 0,0 8.7,-1.4 11.4,-7.6 0,0 -15.6,3.1 -27.9,-9.4 h -23.7 z"
     inkscape:connector-curvature="0"
     style="fill:#615d5f" /><path
     id="path121"
     d="m 1005.723,391.92761 c 0,0 66.5,11.6 102.7,-12.4 0,0 -44.7,46.3 -102.7,12.4"
     inkscape:connector-curvature="0"
     style="fill:#797375" /><path
     id="path123-8"
     d="m 987.92297,330.32761 c 0,0 53.40003,41.2 96.70003,36.9 -0.1,0 -61.2,20.1 -96.70003,-36.9"
     inkscape:connector-curvature="0"
     style="fill:#797375" /></g><g
   inkscape:groupmode="layer"
   id="layer4"
   inkscape:label="tv"
   style="display:inline"
   transform="translate(0,-2.0605469e-6)"><g
     transform="translate(-306.47219,-6.9403714)"
     id="g5668"><path
       class="st17"
       d="m 427.5,800.1 c 0.8,19.3 5.4,34 10.6,70.5 3.3,23.5 85.7575,82.33681 143,109.4 71.66017,33.8796 178.37441,96.6811 222.1,19.03749 8.89552,-18.6088 0,-57.53749 0,-76.93749 -53.7,-39.5 -137.6,-51 -200.6,-82.5 -19.5,-9.7 -160.9,-62.2 -175.9,-45 -0.5,0.7 1.7,6 0.8,5.5 z"
       id="path165"
       inkscape:connector-curvature="0"
       style="fill:#619c99;fill-rule:evenodd"
       sodipodi:nodetypes="ccsccccc" /><path
       class="st19"
       d="m 689.9,957.1 c 39.6,21 164.4,-11.8 91.1,-81.3 C 764.6,860.2 591.7,768.6 559,749.3 508.9,719.7 417.7,767.2 427.5,800.2 434.8,824.8 661,941.7 689.9,957.1 z"
       id="path167"
       inkscape:connector-curvature="0"
       style="fill:#8ac2bf;fill-rule:evenodd" /><path
       class="st20"
       d="m 628.1,871.2 c 0.9,1.3 27.6,15.7 30.8,13.3 4.1,-3 25.8,-15.6 25.8,-18.2 0,-11.1 -102.6,-66.1 -104.3,-63.3 -3.2,5.4 -35.9,17.3 -21.2,23.9 3.7,1.6 68.7,44 68.9,44.3 z"
       id="path169"
       inkscape:connector-curvature="0"
       style="fill:#666666;fill-rule:evenodd" /><path
       class="st21"
       d="m 743.7,909 c 21.6,11.7 11.2,7.8 19.7,5.4 13.4,-3.9 -6.1,-118 -7.3,-132.8 C 754,755.5 740.9,753.8 719.7,742 L 531.1,637.2 c -19.5,-10.8 -21.9,-16.7 -38.8,-4.5 8.2,19.3 20,111.1 20,130.9 0,19.1 246.4,152.4 231.4,145.4 z"
       id="path171"
       inkscape:connector-curvature="0"
       style="fill:#999999;fill-rule:evenodd" /><path
       class="st22"
       d="M 676.4,790.4 C 665.8,775.6 591.2,742 565.1,724 c -8.6,7.2 -14.3,10.5 -15.3,22.1 -0.7,7.7 -2.4,57.7 1.4,61 8.2,7 102.3,69.2 109.2,65.9 23.2,-11.3 17.7,-4.7 18.5,-35.3 0.3,-7.2 1.3,-42 -2.5,-47.3 z"
       id="path173"
       inkscape:connector-curvature="0"
       style="fill:#808080;fill-rule:evenodd" /></g></g></svg>