<?xml version="1.0" encoding="UTF-8" standalone="no"?>
<!-- Creator: CorelDRAW X6 -->

<svg
   xmlns:dc="http://purl.org/dc/elements/1.1/"
   xmlns:cc="http://creativecommons.org/ns#"
   xmlns:rdf="http://www.w3.org/1999/02/22-rdf-syntax-ns#"
   xmlns:svg="http://www.w3.org/2000/svg"
   xmlns="http://www.w3.org/2000/svg"
   xmlns:sodipodi="http://sodipodi.sourceforge.net/DTD/sodipodi-0.dtd"
   xmlns:inkscape="http://www.inkscape.org/namespaces/inkscape"
   xml:space="preserve"
   width="19.4444in"
   height="13.6111in"
   version="1.1"
   style="shape-rendering:geometricPrecision; text-rendering:geometricPrecision; image-rendering:optimizeQuality; fill-rule:evenodd; clip-rule:evenodd"
   viewBox="0 0 19444 13611"
   id="svg2"
   inkscape:version="0.48.5 r10040"
   sodipodi:docname="prescription.svg"><metadata
   id="metadata351"><rdf:RDF><cc:Work
       rdf:about=""><dc:format>image/svg+xml</dc:format><dc:type
         rdf:resource="http://purl.org/dc/dcmitype/StillImage" /><dc:title></dc:title></cc:Work></rdf:RDF></metadata><sodipodi:namedview
   pagecolor="#ffffff"
   bordercolor="#666666"
   borderopacity="1"
   objecttolerance="10"
   gridtolerance="10"
   guidetolerance="10"
   inkscape:pageopacity="0"
   inkscape:pageshadow="2"
   inkscape:window-width="1536"
   inkscape:window-height="803"
   id="namedview349"
   showgrid="false"
   inkscape:zoom="0.32685787"
   inkscape:cx="517.80274"
   inkscape:cy="614.34092"
   inkscape:window-x="-8"
   inkscape:window-y="-8"
   inkscape:window-maximized="1"
   inkscape:current-layer="layer2" />
 <defs
   id="defs4">
  <style
   type="text/css"
   id="style6">
   
    .str1 {stroke:#939393;stroke-width:202.898;stroke-linecap:round;stroke-linejoin:round}
    .str2 {stroke:#A8A8A8;stroke-width:202.898;stroke-linecap:round;stroke-linejoin:round}
    .str0 {stroke:#313131;stroke-width:289.85;stroke-linecap:round;stroke-linejoin:round}
    .str3 {stroke:#57575B;stroke-width:289.85;stroke-linecap:round;stroke-linejoin:round}
    .fil14 {fill:none;fill-rule:nonzero}
    .fil12 {fill:#2B2A2A;fill-rule:nonzero}
    .fil6 {fill:#313131;fill-rule:nonzero}
    .fil25 {fill:#3467B1;fill-rule:nonzero}
    .fil16 {fill:#3D9A1D;fill-rule:nonzero}
    .fil27 {fill:#3F77BC;fill-rule:nonzero}
    .fil15 {fill:#4BBA2D;fill-rule:nonzero}
    .fil19 {fill:#525256;fill-rule:nonzero}
    .fil11 {fill:#57575B;fill-rule:nonzero}
    .fil21 {fill:#62CC3F;fill-rule:nonzero}
    .fil17 {fill:#67676D;fill-rule:nonzero}
    .fil4 {fill:#727272;fill-rule:nonzero}
    .fil18 {fill:#828282;fill-rule:nonzero}
    .fil7 {fill:#8E5628;fill-rule:nonzero}
    .fil13 {fill:#939393;fill-rule:nonzero}
    .fil8 {fill:#A36733;fill-rule:nonzero}
    .fil9 {fill:#BA7E52;fill-rule:nonzero}
    .fil3 {fill:#D1D1D4;fill-rule:nonzero}
    .fil0 {fill:#DBDBDB;fill-rule:nonzero}
    .fil1 {fill:#E6E6E8;fill-rule:nonzero}
    .fil20 {fill:#FF4444;fill-rule:nonzero}
    .fil23 {fill:#FFBA11;fill-rule:nonzero}
    .fil22 {fill:#FFD60F;fill-rule:nonzero}
    .fil24 {fill:#FFE811;fill-rule:nonzero}
    .fil5 {fill:white;fill-rule:nonzero}
    .fil10 {fill:#8E5628;fill-rule:nonzero;fill-opacity:0.101961}
    .fil2 {fill:#727272;fill-rule:nonzero;fill-opacity:0.200000}
    .fil26 {fill:#828282;fill-rule:nonzero;fill-opacity:0.301961}
    .fil28 {fill:url(#id2);fill-rule:nonzero}
   
  </style>
   <mask
   id="id0">
  <linearGradient
   id="id1"
   gradientUnits="userSpaceOnUse"
   x1="-0"
   y1="9975.86"
   x2="19435.8"
   y2="9975.86">
   <stop
   offset="0"
   style="stop-opacity:0.2; stop-color:white"
   id="stop10" />
   <stop
   offset="1"
   style="stop-opacity:0; stop-color:white"
   id="stop12" />
  </linearGradient>
    <rect
   style="fill:url(#id1)"
   x="-2"
   y="6339"
   width="19439"
   height="7274"
   id="rect14" />
   </mask>
  <linearGradient
   id="id2"
   gradientUnits="userSpaceOnUse"
   x1="-0"
   y1="9975.86"
   x2="19435.8"
   y2="9975.86">
   <stop
   offset="0"
   style="stop-color:white"
   id="stop17" />
   <stop
   offset="1"
   style="stop-color:#727272"
   id="stop19" />
  </linearGradient>
 
  
  
  
 
  
  
  
  
  
  
  
  
  
  
  
  
  
  
  
  
  
  
  
 </defs>
 <polygon
   style="fill:#e0e0e0;fill-rule:nonzero;fill-opacity:1"
   id="polygon23"
   points="19444,0 19444,13611 0,13611 0,0 "
   class="fil0"
   transform="matrix(-1,0,0,1,19445,0)" />
 
<g
   inkscape:groupmode="layer"
   id="layer2"
   inkscape:label="clipboard"><path
     sodipodi:type="arc"
     style="fill:#f0f0f0;fill-opacity:1;fill-rule:evenodd"
     id="path4454"
     sodipodi:cx="624.12451"
     sodipodi:cy="547.33447"
     sodipodi:rx="718.96692"
     sodipodi:ry="644.0108"
     d="m 1343.0914,547.33447 a 718.96692,644.0108 0 1 1 -1437.933807,0 718.96692,644.0108 0 1 1 1437.933807,0 z"
     transform="matrix(11.583839,0,0,12.615373,1336.4645,-2845.9899)" /></g><g
   inkscape:groupmode="layer"
   id="layer5"
   inkscape:label="pills"><g
     style="shape-rendering:geometricPrecision;text-rendering:geometricPrecision;image-rendering:optimizeQuality;fill-rule:evenodd;clip-rule:evenodd"
     id="_355595880"
     transform="matrix(-0.99999997,0,0,0.99999997,20069.962,3124.8106)">
   <path
   style="fill:#d1d1d4;fill-rule:nonzero"
   inkscape:connector-curvature="0"
   id="path32"
   d="m 5995,2540 -168,0 0,0 -161,0 c -61,0 -110,49 -110,110 l 0,3 c 0,28 10,53 27,72 0,0 0,0 0,0 3,4 7,7 11,11 0,0 0,0 0,0 4,3 8,6 12,9 0,0 1,0 1,1 4,2 8,4 12,6 1,0 1,1 2,1 4,2 9,4 13,5 0,0 1,0 1,0 4,1 8,2 12,3 1,0 2,0 4,1 5,1 10,1 14,1 l 161,0 0,0 168,0 c 5,0 10,0 14,-1 1,0 2,0 4,-1 4,-1 8,-2 12,-3 0,0 1,0 1,0 5,-1 9,-3 13,-5 1,0 1,-1 2,-1 4,-2 8,-4 12,-6 0,0 1,0 1,-1 4,-3 8,-6 12,-9 0,0 0,0 0,0 4,-3 7,-7 11,-11 0,0 0,0 0,0 17,-19 27,-45 27,-72 l 0,-3 c 0,-61 -49,-110 -110,-110 z"
   class="fil3" />
   <path
   style="fill:#d1d1d4;fill-rule:nonzero"
   inkscape:connector-curvature="0"
   id="path34"
   d="m 6269,1719 c 0,0 0,-1 1,-1 3,-4 5,-9 7,-13 0,0 0,0 0,0 2,-5 4,-9 5,-14 0,0 0,0 0,0 7,-25 5,-52 -7,-77 l -1,-3 c -26,-55 -92,-78 -147,-51 l -152,73 -146,70 c -55,26 -78,92 -51,147 l 1,3 c 12,25 32,43 56,53 0,0 0,0 0,0 5,2 9,4 14,5 0,0 0,0 0,0 5,1 10,2 15,3 0,0 1,0 1,0 4,1 9,1 13,1 1,0 2,0 2,0 5,0 9,0 14,-1 0,0 1,0 1,0 4,-1 8,-2 12,-3 1,0 2,-1 4,-1 5,-1 9,-3 13,-5 l 146,-70 152,-73 c 4,-2 9,-5 13,-7 1,-1 2,-1 3,-2 3,-2 7,-5 10,-8 0,0 1,-1 1,-1 4,-3 7,-7 10,-10 1,-1 1,-1 2,-2 3,-3 5,-7 8,-11 z"
   class="fil3" />
   <path
   style="fill:#d1d1d4;fill-rule:nonzero"
   inkscape:connector-curvature="0"
   id="path36"
   d="m 7860,3494 c 1,-1 1,-1 2,-2 3,-3 5,-7 8,-11 0,0 0,-1 1,-1 3,-4 5,-9 7,-13 0,0 0,0 0,0 2,-5 4,-9 5,-14 0,0 0,0 0,0 7,-25 5,-52 -7,-77 l -1,-3 c -26,-55 -92,-78 -147,-51 l -152,73 -146,70 c -55,26 -78,92 -51,147 l 1,3 c 12,25 32,43 56,53 0,0 0,0 0,0 5,2 9,4 14,5 0,0 0,0 0,0 5,1 10,2 15,3 0,0 1,0 1,0 4,1 9,1 13,1 1,0 2,0 2,0 5,0 9,0 14,-1 0,0 1,0 1,0 4,-1 8,-2 12,-3 1,0 2,-1 4,-1 5,-1 9,-3 13,-5 l 146,-70 152,-73 c 4,-2 9,-5 13,-7 1,-1 2,-1 3,-2 3,-2 7,-5 10,-8 0,0 1,-1 1,-1 4,-3 7,-7 10,-10 z"
   class="fil3" />
   <path
   style="fill:#d1d1d4;fill-rule:nonzero"
   inkscape:connector-curvature="0"
   id="path38"
   d="m 7380,2130 c 1,0 2,1 4,1 4,1 8,2 12,3 0,0 1,0 1,0 5,1 9,1 14,1 1,0 2,0 2,0 4,0 9,0 13,-1 0,0 1,0 1,0 5,-1 10,-2 15,-3 0,0 0,0 0,0 5,-1 10,-3 14,-5 0,0 0,0 0,0 23,-11 43,-30 55,-55 l 1,-3 c 25,-55 0,-120 -55,-145 l -154,-69 -147,-66 c -55,-25 -121,0 -145,55 l -1,3 c -11,25 -12,53 -5,77 0,0 0,0 0,0 1,5 3,9 5,14 0,0 0,0 0,0 2,4 5,9 7,13 0,0 0,1 1,1 2,4 5,7 8,11 1,1 1,1 2,2 3,4 6,7 10,10 0,0 1,1 1,1 3,3 7,5 10,8 1,1 2,1 3,2 4,3 8,5 13,7 l 148,66 154,69 c 4,2 9,4 14,5 z"
   class="fil3" />
   <path
   style="fill:#d1d1d4;fill-rule:nonzero"
   inkscape:connector-curvature="0"
   id="path40"
   d="m 4820,3456 -168,-17 -161,-17 c -60,-6 -114,38 -121,98 l 0,3 c -3,28 5,54 20,75 0,0 0,0 0,0 3,4 6,8 10,12 0,0 0,0 0,0 3,4 7,7 11,10 0,0 1,0 1,1 3,3 7,5 11,8 1,0 1,1 2,1 4,2 8,5 13,6 0,0 1,0 1,1 4,2 8,3 12,4 1,0 2,1 4,1 5,1 9,2 14,3 l 161,17 167,17 c 5,1 10,1 14,0 1,0 2,0 4,0 4,0 8,-1 13,-1 0,0 1,0 1,0 5,-1 9,-2 14,-4 1,0 2,-1 2,-1 4,-1 8,-3 12,-5 0,0 1,0 1,0 4,-2 9,-5 13,-8 0,0 0,0 0,0 25,-18 43,-46 46,-79 l 0,-3 c 6,-60 -38,-114 -98,-121 z"
   class="fil3" />
  </g><g
     style="shape-rendering:geometricPrecision;text-rendering:geometricPrecision;image-rendering:optimizeQuality;fill-rule:evenodd;clip-rule:evenodd"
     id="g3666"
     transform="translate(-2427.7375,5720.8071)"><path
       class="fil2"
       d="m 15417,2087 726,-811 c 42,-47 115,-51 163,-9 l 215,192 c 45,40 51,109 14,156 l 162,145 c 122,-59 273,-42 380,54 l 401,359 711,636 167,150 c 142,127 154,346 27,488 l -561,627 c -127,142 -346,154 -488,27 L 16055,2956 c -107,-96 -140,-244 -96,-372 l -80,-71 -17,-15 -65,-58 c -43,41 -111,43 -157,3 l -215,-192 c -47,-42 -51,-115 -9,-163 z"
       id="path42"
       inkscape:connector-curvature="0"
       style="fill:#727272;fill-opacity:0.2;fill-rule:nonzero" /><g
       transform="matrix(-1,0,0,1,19445,0)"
       id="_301647576">
   <path
   class="fil15"
   d="m 3104,2370 234,-210 -737,-824 -234,210 c -122,-59 -273,-42 -380,54 L 708,2745 c -142,127 -154,346 -27,488 l 561,627 c 127,142 346,154 488,27 L 3009,2742 c 107,-96 140,-244 96,-372 z"
   id="path232"
   inkscape:connector-curvature="0"
   style="fill:#4bba2d;fill-rule:nonzero" />
   <path
   class="fil16"
   d="m 3104,2370 224,-200 -143,-160 -1999,1788 54,61 c 127,142 346,154 488,27 L 3007,2741 c 107,-96 140,-244 96,-372 z"
   id="path234"
   inkscape:connector-curvature="0"
   style="fill:#3d9a1d;fill-rule:nonzero" />
   <polygon
   class="fil16"
   points="3184,2298 2447,1474 2601,1336 3339,2160 "
   id="polygon236"
   style="fill:#3d9a1d;fill-rule:nonzero" />
   <path
   class="fil17"
   d="m 3423,2228 c -47,42 -120,38 -163,-9 l -726,-811 c -42,-47 -38,-120 9,-163 l 215,-192 c 47,-42 120,-38 163,9 l 726,811 c 42,47 38,120 -9,163 l -215,192 z"
   id="path238"
   inkscape:connector-curvature="0"
   style="fill:#67676d;fill-rule:nonzero" />
   <path
   class="fil18"
   d="m 3646,1873 -726,-811 c -42,-47 -115,-51 -163,-9 l 880,983 c 47,-42 51,-115 9,-163 z"
   id="path240"
   inkscape:connector-curvature="0"
   style="fill:#828282;fill-rule:nonzero" />
   <g
   id="g242">
    <path
   class="fil19"
   d="m 2604,1360 c -8,7 -21,7 -28,-2 -7,-8 -7,-21 2,-28 l 266,-238 c 8,-7 21,-7 28,2 7,8 7,21 -2,28 l -266,238 z"
   id="path244"
   inkscape:connector-curvature="0"
   style="fill:#525256;fill-rule:nonzero" />
    <path
   class="fil19"
   d="m 2727,1498 c -8,7 -21,7 -28,-2 -7,-8 -7,-21 2,-28 l 266,-238 c 8,-7 21,-7 28,2 7,8 7,21 -2,28 l -266,238 z"
   id="path246"
   inkscape:connector-curvature="0"
   style="fill:#525256;fill-rule:nonzero" />
    <path
   class="fil19"
   d="m 2850,1635 c -8,7 -21,7 -28,-2 -7,-8 -7,-21 2,-28 l 266,-238 c 8,-7 21,-7 28,2 7,8 7,21 -2,28 l -266,238 z"
   id="path248"
   inkscape:connector-curvature="0"
   style="fill:#525256;fill-rule:nonzero" />
    <path
   class="fil19"
   d="m 2973,1773 c -8,7 -21,7 -28,-2 -7,-8 -7,-21 2,-28 l 266,-238 c 8,-7 21,-7 28,2 7,8 7,21 -2,28 l -266,238 z"
   id="path250"
   inkscape:connector-curvature="0"
   style="fill:#525256;fill-rule:nonzero" />
    <path
   class="fil19"
   d="m 3096,1910 c -8,7 -21,7 -28,-2 -7,-8 -7,-21 2,-28 l 266,-238 c 8,-7 21,-7 28,2 7,8 7,21 -2,28 l -266,238 z"
   id="path252"
   inkscape:connector-curvature="0"
   style="fill:#525256;fill-rule:nonzero" />
    <path
   class="fil19"
   d="m 3218,2047 c -8,7 -21,7 -28,-2 -7,-8 -7,-21 2,-28 l 266,-238 c 8,-7 21,-7 28,2 7,8 7,21 -2,28 l -266,238 z"
   id="path254"
   inkscape:connector-curvature="0"
   style="fill:#525256;fill-rule:nonzero" />
    <path
   class="fil19"
   d="m 3341,2185 c -8,7 -21,7 -28,-2 -7,-8 -7,-21 2,-28 l 266,-238 c 8,-7 21,-7 28,2 7,8 7,21 -2,28 l -266,238 z"
   id="path256"
   inkscape:connector-curvature="0"
   style="fill:#525256;fill-rule:nonzero" />
   </g>
   <polygon
   class="fil5"
   points="875,2594 1897,3736 2944,2799 1922,1657 "
   id="polygon258"
   style="fill:#ffffff;fill-rule:nonzero" />
   <path
   class="fil20"
   d="m 2059,2289 c -68,60 -171,55 -232,-13 -60,-68 -55,-171 13,-232 68,-60 171,-55 232,13 60,68 55,171 -13,232 z"
   id="path260"
   inkscape:connector-curvature="0"
   style="fill:#ff4444;fill-rule:nonzero" />
   <path
   class="fil21"
   d="m 2391,1713 c -8,44 -82,68 -165,53 -84,-15 -145,-62 -137,-106 8,-44 82,-68 165,-53 84,15 145,62 137,106 z"
   id="path262"
   inkscape:connector-curvature="0"
   style="fill:#62cc3f;fill-rule:nonzero" />
  </g></g><g
     style="shape-rendering:geometricPrecision;text-rendering:geometricPrecision;image-rendering:optimizeQuality;fill-rule:evenodd;clip-rule:evenodd"
     id="_301650624"
     transform="matrix(-0.99999997,0,0,0.99999997,20069.962,3124.8106)">
   <g
   id="g282">
    <path
   style="fill:#3467b1;fill-rule:nonzero"
   inkscape:connector-curvature="0"
   id="path284"
   d="m 5752,2502 -162,0 c -61,0 -110,49 -110,110 l 0,3 c 0,61 49,110 110,110 l 162,0 0,-223 z"
   class="fil25" />
    <path
   style="fill:#ffffff;fill-rule:nonzero"
   inkscape:connector-curvature="0"
   id="path286"
   d="m 5920,2502 -169,0 0,223 169,0 c 61,0 110,-49 110,-110 l 0,-3 c 0,-61 -49,-110 -110,-110 z"
   class="fil5" />
   </g>
   <path
   style="fill:#828282;fill-opacity:0.30196102;fill-rule:nonzero"
   inkscape:connector-curvature="0"
   id="path288"
   d="m 5490,2661 c 18,37 55,63 99,63 l 330,0 c 44,0 82,-26 99,-63 l -529,0 z"
   class="fil26" />
  </g><g
     style="shape-rendering:geometricPrecision;text-rendering:geometricPrecision;image-rendering:optimizeQuality;fill-rule:evenodd;clip-rule:evenodd"
     id="_301651776"
     transform="matrix(-0.99999997,0,0,0.99999997,20069.962,3124.8106)">
   <g
   id="g291">
    <path
   style="fill:#4bba2d;fill-rule:nonzero"
   inkscape:connector-curvature="0"
   id="path293"
   d="m 5900,1594 -146,70 c -55,26 -78,92 -51,147 l 1,2 c 26,55 92,78 147,51 l 146,-70 -97,-201 z"
   class="fil15" />
    <path
   style="fill:#ffffff;fill-rule:nonzero"
   inkscape:connector-curvature="0"
   id="path295"
   d="m 6052,1521 -152,73 97,201 152,-73 c 55,-26 78,-92 51,-147 l -1,-3 c -26,-55 -92,-78 -147,-51 z"
   class="fil5" />
   </g>
   <path
   style="fill:#828282;fill-opacity:0.30196102;fill-rule:nonzero"
   inkscape:connector-curvature="0"
   id="path297"
   d="m 5734,1851 c 32,26 77,33 117,14 l 297,-143 c 40,-19 62,-59 62,-100 l -476,229 z"
   class="fil26" />
  </g><g
     style="shape-rendering:geometricPrecision;text-rendering:geometricPrecision;image-rendering:optimizeQuality;fill-rule:evenodd;clip-rule:evenodd"
     id="_301651440"
     transform="matrix(-0.99999997,0,0,0.99999997,20069.962,3124.8106)">
   <g
   id="g300">
    <path
   style="fill:#4bba2d;fill-rule:nonzero"
   inkscape:connector-curvature="0"
   id="path302"
   d="m 7500,3357 -146,70 c -55,26 -78,92 -51,147 l 1,2 c 26,55 92,78 147,51 l 146,-70 -97,-201 z"
   class="fil15" />
    <path
   style="fill:#ffffff;fill-rule:nonzero"
   inkscape:connector-curvature="0"
   id="path304"
   d="m 7652,3284 -152,73 97,201 152,-73 c 55,-26 78,-92 51,-147 l -1,-2 c -26,-55 -92,-78 -147,-51 z"
   class="fil5" />
   </g>
   <path
   style="fill:#828282;fill-opacity:0.30196102;fill-rule:nonzero"
   inkscape:connector-curvature="0"
   id="path306"
   d="m 7334,3614 c 32,26 77,33 117,14 l 297,-143 c 40,-19 62,-59 62,-100 l -476,229 z"
   class="fil26" />
  </g><g
     style="shape-rendering:geometricPrecision;text-rendering:geometricPrecision;image-rendering:optimizeQuality;fill-rule:evenodd;clip-rule:evenodd"
     id="_301652520"
     transform="matrix(-0.99999997,0,0,0.99999997,20069.962,3124.8106)">
   <g
   id="g309">
    <path
   style="fill:#ff4444;fill-rule:nonzero"
   inkscape:connector-curvature="0"
   id="path311"
   d="m 7229,1815 -148,-66 c -55,-25 -120,0 -145,55 l -1,3 c -25,55 0,120 55,145 l 148,66 91,-203 z"
   class="fil20" />
    <path
   style="fill:#ffffff;fill-rule:nonzero"
   inkscape:connector-curvature="0"
   id="path313"
   d="m 7382,1884 -154,-69 -91,203 154,69 c 55,25 120,0 145,-55 l 1,-3 c 25,-55 0,-120 -55,-145 z"
   class="fil5" />
   </g>
   <path
   style="fill:#828282;fill-opacity:0.30196102;fill-rule:nonzero"
   inkscape:connector-curvature="0"
   id="path315"
   d="m 6925,1854 c 1,41 25,80 65,98 l 301,135 c 40,18 85,10 116,-17 l -482,-216 z"
   class="fil26" />
  </g><g
     style="shape-rendering:geometricPrecision;text-rendering:geometricPrecision;image-rendering:optimizeQuality;fill-rule:evenodd;clip-rule:evenodd"
     id="_301652184"
     transform="matrix(-0.99999997,0,0,0.99999997,20069.962,3124.8106)">
   <g
   id="g318">
    <path
   style="fill:#ff4444;fill-rule:nonzero"
   inkscape:connector-curvature="0"
   id="path320"
   d="m 4577,3400 -161,-17 c -60,-6 -114,38 -121,98 l 0,3 c -6,60 38,114 98,121 l 161,17 23,-222 z"
   class="fil20" />
    <path
   style="fill:#ffffff;fill-rule:nonzero"
   inkscape:connector-curvature="0"
   id="path322"
   d="m 4744,3417 -168,-17 -23,222 168,17 c 60,6 114,-38 121,-98 l 0,-3 c 6,-60 -38,-114 -98,-121 z"
   class="fil5" />
   </g>
   <path
   style="fill:#828282;fill-opacity:0.30196102;fill-rule:nonzero"
   inkscape:connector-curvature="0"
   id="path324"
   d="m 4301,3532 c 14,39 49,68 92,73 l 328,34 c 44,5 84,-17 105,-53 l -526,-54 z"
   class="fil26" />
  </g><g
     style="shape-rendering:geometricPrecision;text-rendering:geometricPrecision;image-rendering:optimizeQuality;fill-rule:evenodd;clip-rule:evenodd"
     id="g4461"><path
       class="fil2"
       d="m 1702,11658 802,-1561 c 67,-131 205,-202 343,-191 l 101,-197 c -52,-32 -72,-99 -43,-154 l 135,-262 c 30,-58 101,-81 159,-51 l 1824,937 c 58,30 81,101 51,159 l -135,262 c -28,55 -94,78 -151,55 l -101,197 c 90,106 112,259 45,390 l -802,1561 c -89,174 -302,242 -476,153 l -1598,-821 c -174,-89 -242,-302 -153,-476 z"
       id="path29"
       inkscape:connector-curvature="0"
       style="fill:#727272;fill-opacity:0.2;fill-rule:nonzero" /><g
       transform="matrix(-1,0,0,1,19445,0)"
       id="_301650360">
   <path
   class="fil22"
   d="m 17089,10005 -147,-286 -1839,945 147,286 c -90,106 -112,259 -45,390 l 802,1561 c 89,174 302,242 476,153 l 1598,-821 c 174,-89 242,-302 153,-476 l -802,-1561 c -67,-131 -205,-202 -343,-191 z"
   id="path265"
   inkscape:connector-curvature="0"
   style="fill:#ffd60f;fill-rule:nonzero" />
   <path
   class="fil23"
   d="m 17089,10005 -140,-273 -195,100 1253,2439 74,-38 c 174,-89 242,-302 153,-476 l -802,-1561 c -67,-131 -205,-202 -343,-191 z"
   id="path267"
   inkscape:connector-curvature="0"
   style="fill:#ffba11;fill-rule:nonzero" />
   <polygon
   class="fil23"
   points="16942,9719 17039,9907 15200,10852 15103,10664 "
   id="polygon269"
   style="fill:#ffba11;fill-rule:nonzero" />
   <path
   class="fil6"
   d="m 17031,9653 c 30,58 7,129 -51,159 l -1823,937 c -58,30 -129,7 -159,-51 l -135,-262 c -30,-58 -7,-129 51,-159 l 1824,-937 c 58,-30 129,-7 159,51 l 135,262 z"
   id="path271"
   inkscape:connector-curvature="0"
   style="fill:#313131;fill-rule:nonzero" />
   <path
   class="fil11"
   d="m 16738,9340 -1824,937 c -58,30 -81,101 -51,159 l 2033,-1044 c -30,-58 -101,-81 -159,-51 z"
   id="path273"
   inkscape:connector-curvature="0"
   style="fill:#57575b;fill-rule:nonzero" />
   <polygon
   class="fil5"
   points="15246,11418 15902,12696 18129,11552 17472,10274 "
   id="polygon275"
   style="fill:#ffffff;fill-rule:nonzero" />
   <path
   class="fil15"
   d="m 15906,11446 c 42,82 10,184 -73,226 -82,42 -184,10 -226,-73 -42,-82 -10,-184 73,-226 82,-42 184,-10 226,73 z"
   id="path277"
   inkscape:connector-curvature="0"
   style="fill:#4bba2d;fill-rule:nonzero" />
   <path
   class="fil24"
   d="m 15422,10969 c 41,19 46,98 10,177 -36,79 -99,128 -140,109 -41,-19 -46,-98 -10,-177 36,-79 99,-127 140,-109 z"
   id="path279"
   inkscape:connector-curvature="0"
   style="fill:#ffe811;fill-rule:nonzero" />
  </g></g></g><g
   inkscape:groupmode="layer"
   id="layer1"
   inkscape:label="notes"><g
     id="g3522"
     transform="matrix(0.90095705,-0.43390827,0.43390827,0.90095705,-1413.5014,4214.8334)"><path
       class="fil2"
       d="m 6852,2842 388,78 22,-110 17,-84 c 22,-108 127,-178 234,-156 l 971,195 c 1,-14 3,-28 6,-42 44,-219 257,-361 476,-317 219,44 361,257 317,476 -3,14 -6,28 -11,41 l 971,195 c 108,22 178,127 156,234 l -17,84 -22,110 388,78 c 195,39 321,228 281,423 l -36,181 -1064,5297 -36,181 c -39,195 -228,321 -423,281 L 5572,9204 c -195,-39 -321,-228 -281,-423 l 36,-181 1064,-5297 36,-181 c 39,-195 228,-321 423,-281 z m 2026,9 0,0 c -64,-13 -114,-55 -139,-110 -20,18 -36,40 -47,65 0,-7 0,-14 1,-21 -1,7 -1,14 -1,22 0,16 3,31 7,46 0,1 1,2 1,3 1,4 2,8 4,12 1,2 1,3 2,5 1,4 3,7 4,11 1,2 2,4 3,5 2,3 3,7 5,10 1,2 2,4 3,6 2,3 4,6 6,9 1,2 3,4 4,6 2,3 4,5 6,8 3,3 6,7 9,10 2,3 5,5 8,8 2,2 5,5 7,7 2,2 4,3 6,5 3,2 5,4 8,6 2,2 4,3 7,4 3,2 6,4 9,5 2,1 4,2 7,4 3,2 7,3 10,5 2,1 4,2 7,3 4,2 8,3 12,4 2,1 4,1 6,2 6,2 12,3 18,5 6,1 12,2 19,3 2,0 4,0 6,0 4,0 8,1 12,1 2,0 5,0 7,0 4,0 7,0 11,-1 3,0 5,0 8,-1 3,0 7,-1 10,-2 3,0 5,-1 8,-1 3,-1 7,-2 10,-3 3,-1 5,-1 8,-2 3,-1 6,-2 10,-3 3,-1 7,-3 10,-4 4,-2 8,-4 12,-6 3,-2 6,-3 9,-5 2,-1 4,-2 6,-4 3,-2 6,-4 9,-6 2,-1 4,-3 5,-4 3,-2 6,-5 8,-7 2,-1 3,-3 5,-4 3,-3 6,-5 8,-8 1,-1 2,-3 4,-4 3,-3 5,-6 8,-9 1,-1 1,-2 2,-3 9,-12 17,-25 24,-40 0,0 0,0 0,0 -1,-27 -7,-54 -18,-78 -45,41 -107,60 -171,48 z m 190,27 0,0 c 2,-5 5,-11 6,-17 -2,6 -4,11 -6,17 z"
       id="path44"
       inkscape:connector-curvature="0"
       style="fill:#727272;fill-opacity:0.2;fill-rule:nonzero" /><g
       transform="matrix(-0.99999997,0,0,0.99999997,19445,0)"
       id="_355601544"
       style="fill-rule:evenodd">
   <g
   id="g154">
    <path
   class="fil7"
   d="m 13482,8926 -3898,783 c -195,39 -384,-87 -423,-281 l 36,181 c 39,195 228,321 423,281 l 3898,-783 c 195,-39 321,-228 281,-423 l -36,-181 c 39,195 -87,384 -281,423 z"
   id="path156"
   inkscape:connector-curvature="0"
   style="fill:#8e5628;fill-rule:nonzero" />
    <path
   class="fil8"
   d="m 13763,8504 c 39,195 -87,384 -281,423 l -3898,783 c -195,39 -384,-87 -423,-281 L 8061,3951 c -39,-195 87,-384 281,-423 l 3898,-783 c 195,-39 384,87 423,281 l 1100,5478 z"
   id="path158"
   inkscape:connector-curvature="0"
   style="fill:#a36733;fill-rule:nonzero" />
    <path
   class="fil7"
   d="m 10281,6724 c 4,22 -10,43 -31,47 -22,4 -42,-10 -47,-31 L 9694,4208 c -4,-22 10,-43 31,-47 22,-4 43,10 47,31 l 509,2532 z"
   id="path160"
   inkscape:connector-curvature="0"
   style="fill:#8e5628;fill-rule:nonzero" />
    <path
   class="fil7"
   d="m 11270,6190 c 4,22 -10,43 -31,47 -22,4 -43,-10 -47,-31 l -294,-1461 c -4,-22 10,-43 31,-47 22,-4 43,10 47,31 l 294,1461 z"
   id="path162"
   inkscape:connector-curvature="0"
   style="fill:#8e5628;fill-rule:nonzero" />
    <path
   class="fil7"
   d="m 12120,5775 c 4,22 -10,43 -31,47 -22,4 -43,-10 -47,-31 l -509,-2532 c -4,-22 10,-43 31,-47 22,-4 43,10 47,31 l 509,2532 z"
   id="path164"
   inkscape:connector-curvature="0"
   style="fill:#8e5628;fill-rule:nonzero" />
    <g
   id="g166">
     <path
   class="fil9"
   d="m 12240,2744 -3898,783 c -195,39 -321,228 -281,423 l 36,181 c -39,-195 87,-384 281,-423 l 3898,-783 c 195,-39 384,87 423,281 l -36,-181 c -39,-195 -228,-321 -423,-281 z"
   id="path168"
   inkscape:connector-curvature="0"
   style="fill:#ba7e52;fill-rule:nonzero" />
    </g>
    <g
   id="g170">
     <path
   class="fil1"
   d="m 10368,2523 c 21,106 -47,210 -154,231 -106,21 -210,-47 -231,-154 -21,-106 47,-210 154,-231 106,-21 210,47 231,154 z"
   id="path172"
   inkscape:connector-curvature="0"
   style="fill:#e6e6e8;fill-rule:nonzero" />
     <path
   class="fil10"
   d="m 12240,2744 -3898,783 c -130,26 -229,119 -269,235 l 5122,1916 -533,-2653 c -39,-195 -228,-321 -423,-281 z"
   id="path174"
   inkscape:connector-curvature="0"
   style="fill:#8e5628;fill-opacity:0.10196102;fill-rule:nonzero" />
     <path
   class="fil6"
   d="m 11935,3236 -122,-609 c -22,-108 -127,-178 -234,-156 l -971,195 c -1,-14 -3,-28 -6,-42 -44,-219 -257,-361 -476,-317 -219,44 -361,257 -317,476 3,14 6,28 11,41 l -971,195 c -108,22 -178,127 -156,234 l 122,609 3122,-627 z m -1769,-724 0,0 c 106,-21 210,47 231,154 3,15 4,29 4,43 0,16 -3,31 -7,46 0,1 -1,2 -1,3 -1,4 -2,8 -4,12 -1,2 -1,3 -2,5 -1,4 -3,7 -4,11 -1,2 -2,4 -3,5 -2,3 -3,7 -5,10 -1,2 -2,4 -3,6 -2,3 -4,6 -6,9 -1,2 -3,4 -4,6 -2,3 -4,5 -6,8 -3,3 -6,7 -9,10 -3,3 -5,5 -8,8 -2,2 -5,5 -8,7 -2,2 -4,3 -6,5 -3,2 -5,4 -8,6 -2,1 -4,3 -6,4 -3,2 -6,4 -9,5 -2,1 -4,2 -7,4 -3,2 -7,3 -10,5 -2,1 -4,2 -7,3 -4,2 -8,3 -12,4 -2,1 -4,1 -6,2 -6,2 -12,3 -18,5 -6,1 -12,2 -19,3 -2,0 -4,0 -6,0 -4,0 -8,1 -12,1 -2,0 -5,0 -7,0 -4,0 -7,0 -11,-1 -3,0 -5,0 -8,-1 -3,0 -7,-1 -10,-2 -3,0 -5,-1 -8,-1 -3,-1 -7,-2 -10,-3 -2,-1 -5,-1 -8,-2 -3,-1 -6,-2 -10,-3 -3,-1 -7,-3 -10,-4 -4,-2 -8,-4 -12,-6 -3,-2 -6,-3 -9,-5 -2,-1 -4,-2 -6,-4 -3,-2 -6,-4 -9,-6 -2,-1 -4,-3 -5,-4 -3,-2 -6,-5 -8,-7 -2,-1 -3,-3 -5,-4 -3,-3 -6,-5 -8,-8 -1,-1 -2,-3 -4,-4 -3,-3 -5,-6 -8,-9 -1,-1 -1,-2 -2,-3 -9,-12 -18,-25 -24,-40 -6,-13 -10,-27 -13,-41 -21,-106 47,-210 154,-231 z"
   id="path176"
   inkscape:connector-curvature="0"
   style="fill:#313131;fill-rule:nonzero" />
     <g
   id="g178">
      <path
   class="fil11"
   d="m 11578,2472 -971,195 c -1,-14 -3,-28 -6,-42 -44,-219 -257,-361 -476,-317 -219,44 -361,257 -317,476 3,14 6,28 11,41 l -971,195 c -108,22 -178,127 -156,234 l 17,84 c -22,-108 48,-213 156,-234 l 971,-195 c -4,-13 -8,-27 -11,-41 -44,-219 98,-432 317,-476 219,-44 432,98 476,317 3,14 5,28 6,42 l 971,-195 c 108,-22 213,48 234,156 l -17,-84 c -22,-108 -127,-178 -234,-156 z"
   id="path180"
   inkscape:connector-curvature="0"
   style="fill:#57575b;fill-rule:nonzero" />
      <path
   class="fil12"
   d="m 10183,2596 c 92,-18 181,30 218,112 0,-14 -1,-29 -4,-43 -21,-106 -125,-175 -231,-154 -106,21 -175,125 -154,231 3,14 8,28 13,41 2,-90 66,-169 157,-188 z"
   id="path182"
   inkscape:connector-curvature="0"
   style="fill:#2b2a2a;fill-rule:nonzero" />
      <polygon
   class="fil12"
   points="11916,3141 8794,3769 8830,3948 11952,3320 "
   id="polygon184"
   style="fill:#2b2a2a;fill-rule:nonzero" />
     </g>
    </g>
   </g>
   <path
   class="fil7"
   d="m 9669,9739 c 4,22 -10,43 -31,47 -22,4 -43,-10 -47,-31 L 9082,7223 c -4,-22 10,-43 31,-47 22,-4 43,10 47,31 l 509,2532 z"
   id="path186"
   inkscape:connector-curvature="0"
   style="fill:#8e5628;fill-rule:nonzero" />
   <path
   class="fil7"
   d="m 9827,8507 c 4,22 -10,43 -31,47 -22,4 -43,-10 -47,-31 L 9240,5991 c -4,-22 10,-43 31,-47 22,-4 43,10 47,31 l 509,2532 z"
   id="path188"
   inkscape:connector-curvature="0"
   style="fill:#8e5628;fill-rule:nonzero" />
   <path
   class="fil7"
   d="m 13113,8158 c 4,22 -10,43 -31,47 -22,4 -43,-10 -47,-31 l -509,-2532 c -4,-22 10,-43 31,-47 22,-4 43,10 47,31 l 509,2532 z"
   id="path190"
   inkscape:connector-curvature="0"
   style="fill:#8e5628;fill-rule:nonzero" />
   <path
   class="fil7"
   d="m 11312,9009 c 4,22 -10,43 -31,47 -22,4 -42,-10 -47,-31 l -509,-2532 c -4,-22 10,-43 31,-47 22,-4 43,10 47,31 l 509,2532 z"
   id="path192"
   inkscape:connector-curvature="0"
   style="fill:#8e5628;fill-rule:nonzero" />
   <path
   class="fil7"
   d="m 11511,7389 c 4,22 -10,43 -31,47 -22,4 -43,-10 -47,-31 l -143,-711 c -4,-22 10,-43 31,-47 22,-4 42,10 47,31 l 143,711 z"
   id="path194"
   inkscape:connector-curvature="0"
   style="fill:#8e5628;fill-rule:nonzero" />
   <path
   class="fil7"
   d="m 9225,5507 c 4,22 -10,43 -31,47 -22,4 -43,-10 -47,-31 l -143,-711 c -4,-22 10,-43 31,-47 22,-4 43,10 47,31 l 143,711 z"
   id="path196"
   inkscape:connector-curvature="0"
   style="fill:#8e5628;fill-rule:nonzero" />
   <path
   class="fil7"
   d="m 12672,8522 c 4,22 -10,43 -31,47 -22,4 -43,-10 -47,-31 l -143,-711 c -4,-22 10,-42 31,-47 22,-4 43,10 47,31 l 143,711 z"
   id="path198"
   inkscape:connector-curvature="0"
   style="fill:#8e5628;fill-rule:nonzero" />
  </g></g><g
     style="fill-rule:evenodd"
     id="_355596984"
     transform="matrix(0.98834673,-0.15221937,0.15221937,0.98834673,3243.0632,-723.95483)">
   <g
   id="g47">
    <polygon
   style="fill:#727272;fill-rule:nonzero"
   id="polygon49"
   points="6136,11429 2074,10567 3223,5155 7285,6017 "
   class="fil4" />
   </g>
   <g
   id="g51">
    <g
   id="g53">
     <polygon
   style="fill:#ffffff;fill-rule:nonzero"
   id="polygon55"
   points="6088,11337 2026,10475 3175,5063 7237,5925 "
   class="fil5" />
    </g>
    <g
   id="g57">
     <path
   style="fill:#313131;fill-rule:nonzero"
   inkscape:connector-curvature="0"
   id="path59"
   d="m 4008,6425 c -3,-8 -12,-22 -16,-33 l -86,-202 145,-137 c 9,-8 21,-17 27,-23 5,-5 8,-11 10,-16 3,-12 -5,-26 -19,-29 -10,-2 -19,2 -26,9 -6,6 -16,19 -24,28 l -131,126 -70,-169 c -1,-3 -3,-7 -4,-11 61,-4 111,-38 125,-101 17,-82 -41,-144 -125,-162 l -115,-24 c -18,-4 -31,5 -35,21 -2,9 -3,25 -5,38 l -72,341 c -3,12 -9,29 -11,37 -3,16 5,30 20,33 15,3 29,-6 32,-22 2,-9 3,-26 5,-38 l 31,-146 80,17 15,2 c 3,8 12,21 16,32 l 77,182 -160,152 c -9,8 -21,17 -27,23 -5,5 -8,11 -10,16 -3,12 5,26 19,29 10,2 19,-2 26,-9 6,-6 16,-19 24,-28 l 146,-140 79,188 c 4,11 9,29 12,36 4,9 10,16 20,18 14,3 27,-7 29,-19 1,-6 1,-11 -2,-18 z m -335,-523 0,0 37,-174 94,20 c 63,13 99,56 87,109 -11,54 -61,78 -124,64 l -94,-20 z"
   class="fil6" />
    </g>
    <g
   id="g61">
     <path
   style="fill:#313131;fill-rule:nonzero"
   inkscape:connector-curvature="0"
   id="path63"
   d="M 5743,10023 2875,9414 c -4,-1 -6,-4 -5,-8 l 609,-2868 c 1,-4 4,-6 8,-5 l 2868,609 c 4,1 6,4 5,8 l -609,2868 c -1,4 -4,6 -8,5 z m -2859,-620 0,0 2855,606 606,-2855 -2855,-606 -606,2855 z"
   class="fil6" />
    </g>
    <g
   id="g65">
     <path
   style="fill:#313131;fill-rule:nonzero"
   inkscape:connector-curvature="0"
   id="path67"
   d="m 2828,9721 17,-81 c 1,-3 1,-7 1,-9 1,-4 4,-6 8,-5 l 27,6 c 23,5 35,20 31,40 -4,19 -22,29 -43,25 l -24,-5 -7,33 c -1,3 -1,7 -1,9 -1,4 -4,6 -8,5 -4,-1 -6,-4 -5,-8 0,-2 2,-6 3,-9 z m 44,-35 0,0 c 15,3 27,-4 29,-17 3,-13 -4,-23 -21,-27 l -22,-5 -9,44 24,5 z"
   class="fil6" />
     <path
   style="fill:#313131;fill-rule:nonzero"
   inkscape:connector-curvature="0"
   id="path69"
   d="m 2942,9692 c 7,-5 16,-7 25,-5 16,3 23,18 20,33 l -7,35 c -1,3 -1,6 -1,9 -1,3 -4,6 -7,5 -3,-1 -6,-4 -5,-7 1,-3 2,-6 2,-8 l 7,-34 c 3,-12 -3,-21 -13,-23 -8,-2 -16,1 -23,7 l -9,42 c -1,3 -1,6 -1,9 -1,3 -4,6 -7,5 -3,-1 -6,-4 -5,-7 1,-3 2,-6 2,-8 l 18,-85 c 1,-3 1,-6 1,-9 1,-3 4,-6 7,-5 3,1 6,4 5,7 -1,3 -2,6 -2,8 l -7,33 z"
   class="fil6" />
     <path
   style="fill:#313131;fill-rule:nonzero"
   inkscape:connector-curvature="0"
   id="path71"
   d="m 2990,9801 c 1,-3 4,-5 7,-5 3,1 4,3 7,3 3,1 5,-1 8,-5 l 10,-16 0,0 c -2,-1 -5,-3 -6,-5 0,-3 0,-5 0,-9 l -6,-50 c 0,-3 -1,-4 -1,-6 0,-2 -1,-3 0,-4 1,-3 4,-5 7,-4 3,1 4,2 5,5 0,2 0,6 1,9 l 6,48 c 1,4 1,8 1,10 l 32,-50 c 1,-2 3,-6 4,-8 1,-2 4,-3 6,-2 3,1 5,4 5,7 0,1 -1,2 -2,3 -1,2 -3,3 -4,5 l -49,76 c -5,8 -12,10 -22,8 -5,-1 -9,-4 -8,-8 z"
   class="fil6" />
     <path
   style="fill:#313131;fill-rule:nonzero"
   inkscape:connector-curvature="0"
   id="path73"
   d="m 3118,9778 c 1,-6 -3,-11 -15,-17 l -3,-2 c -14,-8 -16,-18 -15,-26 2,-10 13,-18 27,-15 11,2 18,9 21,15 1,2 2,4 1,6 -1,3 -4,5 -7,4 -2,0 -4,-2 -5,-5 -1,-6 -5,-10 -12,-11 -8,-2 -14,2 -15,8 -1,5 0,10 11,16 l 2,1 c 16,9 22,16 20,29 -2,11 -14,20 -32,16 -12,-2 -20,-9 -23,-19 -1,-2 -1,-4 -1,-7 1,-3 3,-5 7,-5 3,1 5,4 5,7 -1,8 6,13 14,15 10,2 18,-1 20,-9 z"
   class="fil6" />
     <path
   style="fill:#313131;fill-rule:nonzero"
   inkscape:connector-curvature="0"
   id="path75"
   d="m 3175,9699 c 4,1 7,5 6,9 -1,4 -5,7 -9,6 -4,-1 -7,-5 -6,-9 1,-4 5,-7 9,-6 z m -15,45 0,0 c 1,-3 1,-6 1,-9 1,-3 4,-6 7,-5 3,1 6,4 5,7 -1,3 -2,6 -2,8 l -10,46 c -1,3 -1,6 -1,9 -1,3 -4,6 -7,5 -3,-1 -6,-4 -5,-7 1,-3 2,-6 2,-8 l 10,-46 z"
   class="fil6" />
     <path
   style="fill:#313131;fill-rule:nonzero"
   inkscape:connector-curvature="0"
   id="path77"
   d="m 3192,9775 c 4,-21 21,-37 43,-32 12,3 20,9 24,17 2,4 2,6 2,7 -1,3 -4,5 -7,4 -2,0 -4,-2 -5,-5 -2,-7 -7,-12 -15,-14 -15,-3 -27,9 -30,25 -3,15 2,32 17,35 10,2 17,-1 20,-7 1,-2 4,-3 6,-3 4,1 5,4 5,7 -1,2 -2,4 -5,7 -7,5 -17,8 -29,6 -22,-5 -31,-26 -26,-47 z"
   class="fil6" />
     <path
   style="fill:#313131;fill-rule:nonzero"
   inkscape:connector-curvature="0"
   id="path79"
   d="m 3300,9726 c 4,1 7,5 6,9 -1,4 -5,7 -9,6 -4,-1 -7,-5 -6,-9 1,-4 5,-7 9,-6 z m -15,45 0,0 c 1,-3 1,-6 1,-9 1,-3 4,-6 7,-5 3,1 6,4 5,7 -1,3 -2,6 -2,8 l -10,46 c -1,3 -1,6 -1,9 -1,3 -4,6 -7,5 -3,-1 -5,-4 -5,-7 1,-3 2,-6 2,-8 l 10,-46 z"
   class="fil6" />
     <path
   style="fill:#313131;fill-rule:nonzero"
   inkscape:connector-curvature="0"
   id="path81"
   d="m 3355,9843 c -6,4 -13,5 -22,3 -15,-3 -25,-15 -22,-29 3,-13 14,-21 32,-18 11,2 17,2 20,0 l 1,-4 c 2,-8 -3,-15 -12,-17 -7,-1 -12,1 -15,6 -1,2 -4,4 -6,3 -4,-1 -5,-4 -5,-7 0,-2 2,-4 3,-5 5,-5 13,-9 25,-6 15,3 24,15 21,29 l -9,41 c 0,1 0,1 0,2 1,0 2,0 3,0 3,1 5,4 4,6 -1,4 -5,6 -10,5 -4,-1 -8,-4 -8,-8 z m 0,-9 0,0 6,-26 c -3,2 -9,2 -19,1 -11,-1 -18,3 -20,11 -2,8 4,15 14,17 8,2 14,0 19,-2 z"
   class="fil6" />
     <path
   style="fill:#313131;fill-rule:nonzero"
   inkscape:connector-curvature="0"
   id="path83"
   d="m 3451,9819 c 3,-12 -3,-21 -13,-23 -8,-2 -16,1 -23,7 l -9,42 c -1,3 -1,6 -1,9 -1,3 -4,6 -7,5 -3,-1 -6,-4 -5,-7 1,-3 2,-6 2,-8 l 10,-46 c 1,-3 0,-7 1,-9 1,-4 4,-6 8,-5 3,1 5,4 5,7 l 0,2 c 7,-5 16,-7 25,-5 16,3 23,18 20,33 l -7,35 c -1,3 -1,6 -1,9 -1,3 -4,6 -7,5 -3,-1 -6,-4 -5,-7 1,-3 2,-6 2,-8 l 7,-34 z"
   class="fil6" />
    </g>
    <g
   id="g85">
     <path
   style="fill:#313131;fill-rule:nonzero"
   inkscape:connector-curvature="0"
   id="path87"
   d="m 2783,9929 c 1,-4 4,-6 8,-5 l 27,6 c 30,6 43,29 36,64 -7,35 -29,54 -60,47 l -26,-5 c -4,-1 -6,-4 -5,-8 0,-2 2,-6 3,-9 l 17,-80 c 1,-3 1,-7 1,-9 z m -8,97 0,0 21,4 c 24,5 41,-12 47,-39 6,-28 -3,-47 -26,-52 l -23,-5 -19,91 z"
   class="fil6" />
     <path
   style="fill:#313131;fill-rule:nonzero"
   inkscape:connector-curvature="0"
   id="path89"
   d="m 2910,10060 c -6,4 -13,5 -22,3 -15,-3 -25,-15 -22,-29 3,-13 14,-21 32,-18 11,2 17,2 20,0 l 1,-4 c 2,-8 -3,-15 -12,-17 -7,-1 -12,1 -15,6 -1,2 -4,4 -7,3 -4,-1 -5,-4 -5,-7 0,-2 2,-4 3,-5 5,-5 13,-9 25,-6 15,3 24,15 21,29 l -9,41 c 0,1 0,1 0,2 1,0 2,0 3,0 3,1 5,4 4,6 -1,4 -5,6 -10,5 -4,-1 -8,-4 -8,-8 z m 0,-9 0,0 6,-26 c -3,2 -9,2 -19,1 -11,-1 -18,3 -20,11 -2,8 4,15 14,17 8,2 14,0 19,-2 z"
   class="fil6" />
     <path
   style="fill:#313131;fill-rule:nonzero"
   inkscape:connector-curvature="0"
   id="path91"
   d="m 2956,9997 c 2,0 4,2 7,2 l 1,0 2,-7 c 1,-3 1,-7 1,-9 1,-4 4,-6 7,-5 3,1 6,4 5,8 0,2 -2,5 -3,8 l -2,7 9,2 c 2,0 5,0 7,1 3,1 5,3 4,6 -1,3 -3,5 -7,4 -2,0 -5,-2 -7,-2 l -9,-2 -10,49 c -1,6 2,8 5,9 3,1 5,0 6,-1 2,-1 4,-2 6,-1 3,1 5,3 4,7 -1,2 -2,4 -4,5 -4,2 -9,2 -13,1 -12,-2 -16,-10 -14,-21 l 10,-49 -1,0 c -3,-1 -5,0 -7,-1 -3,-1 -5,-3 -4,-6 1,-3 3,-5 7,-4 z"
   class="fil6" />
     <path
   style="fill:#313131;fill-rule:nonzero"
   inkscape:connector-curvature="0"
   id="path93"
   d="m 3071,10055 c -1,6 -4,9 -10,7 l -48,-10 c -2,16 5,29 19,32 8,2 16,0 21,-7 1,-2 4,-3 6,-3 4,1 5,4 5,7 0,2 -2,3 -3,5 -7,7 -18,10 -31,8 -21,-4 -32,-23 -27,-47 5,-23 24,-36 43,-31 20,4 29,23 25,40 z m -56,-12 0,0 46,10 c 2,-11 -1,-25 -17,-29 -13,-3 -25,5 -29,19 z"
   class="fil6" />
    </g>
    <g
   id="g95">
     <path
   style="fill:#313131;fill-rule:nonzero"
   inkscape:connector-curvature="0"
   id="path97"
   d="M 5674,10348 3623,9913 c -4,-1 -6,-4 -5,-8 1,-4 4,-6 8,-5 l 2051,435 c 4,1 6,4 5,8 -1,4 -4,6 -8,5 z"
   class="fil6" />
    </g>
    <g
   id="g99">
     <g
   id="g101">
      <path
   style="fill:#313131;fill-rule:nonzero"
   inkscape:connector-curvature="0"
   id="path103"
   d="m 4673,6013 17,-81 c 1,-3 1,-7 1,-9 1,-4 4,-6 8,-5 l 27,6 c 23,5 35,20 31,40 -4,19 -22,29 -43,25 l -24,-5 -7,33 c -1,3 -1,7 -1,9 -1,4 -4,6 -8,5 -4,-1 -6,-4 -5,-8 0,-2 2,-6 3,-9 z m 44,-35 0,0 c 15,3 27,-4 29,-17 3,-13 -4,-23 -21,-27 l -22,-5 -9,44 24,5 z"
   class="fil6" />
      <path
   style="fill:#313131;fill-rule:nonzero"
   inkscape:connector-curvature="0"
   id="path105"
   d="m 4799,6049 c -6,4 -13,5 -22,3 -15,-3 -25,-15 -22,-29 3,-13 14,-21 32,-18 11,2 17,2 20,0 l 1,-4 c 2,-8 -3,-15 -12,-17 -7,-1 -12,1 -15,6 -1,2 -4,4 -7,3 -4,-1 -5,-4 -5,-7 0,-2 2,-4 3,-5 5,-5 13,-9 25,-6 15,3 24,15 21,29 l -9,41 c 0,1 0,1 0,2 1,0 2,0 3,0 3,1 5,4 4,6 -1,4 -5,6 -10,5 -4,-1 -8,-4 -8,-8 z m 0,-9 0,0 6,-26 c -3,2 -9,2 -19,1 -11,-1 -18,3 -20,11 -2,8 4,15 14,17 8,2 14,0 19,-3 z"
   class="fil6" />
      <path
   style="fill:#313131;fill-rule:nonzero"
   inkscape:connector-curvature="0"
   id="path107"
   d="m 4846,5986 c 2,0 4,2 7,2 l 1,0 2,-7 c 1,-3 1,-7 1,-9 1,-4 4,-6 7,-5 3,1 6,4 5,8 0,2 -2,5 -3,8 l -2,7 9,2 c 2,0 5,0 7,1 3,1 5,3 4,6 -1,3 -3,5 -7,4 -2,0 -5,-2 -7,-2 l -9,-2 -10,49 c -1,6 2,8 5,9 3,1 5,0 6,-1 2,-1 4,-2 6,-1 3,1 5,3 4,6 0,2 -2,4 -4,5 -4,2 -9,2 -13,1 -12,-2 -16,-10 -14,-21 l 10,-49 -1,0 c -3,-1 -5,0 -7,-1 -3,-1 -5,-4 -4,-6 1,-3 3,-5 7,-4 z"
   class="fil6" />
      <path
   style="fill:#313131;fill-rule:nonzero"
   inkscape:connector-curvature="0"
   id="path109"
   d="m 4918,5969 c 4,1 7,5 6,9 -1,4 -5,7 -9,6 -4,-1 -7,-5 -6,-9 1,-4 5,-7 9,-6 z m -15,45 0,0 c 1,-3 1,-6 1,-9 1,-3 4,-6 7,-5 3,1 6,4 5,7 -1,3 -2,6 -2,8 l -10,46 c -1,3 -1,6 -1,9 -1,3 -4,6 -7,5 -3,-1 -6,-4 -5,-7 1,-3 2,-6 2,-8 l 10,-46 z"
   class="fil6" />
      <path
   style="fill:#313131;fill-rule:nonzero"
   inkscape:connector-curvature="0"
   id="path111"
   d="m 5003,6053 c -1,6 -4,9 -10,7 l -48,-10 c -2,16 5,29 19,32 8,2 16,0 21,-7 1,-2 4,-3 6,-3 4,1 5,4 5,7 0,2 -2,3 -3,5 -7,7 -18,10 -31,8 -21,-4 -32,-23 -27,-47 5,-23 24,-36 43,-31 20,4 29,23 25,40 z m -56,-12 0,0 46,10 c 2,-11 -1,-26 -17,-29 -13,-3 -25,5 -29,19 z"
   class="fil6" />
      <path
   style="fill:#313131;fill-rule:nonzero"
   inkscape:connector-curvature="0"
   id="path113"
   d="m 5076,6064 c 3,-12 -3,-21 -13,-23 -8,-2 -16,1 -23,7 l -9,42 c -1,3 -1,6 -1,9 -1,3 -4,6 -7,5 -3,-1 -6,-4 -5,-7 1,-3 2,-6 2,-8 l 10,-46 c 1,-3 0,-7 1,-9 1,-4 4,-6 8,-5 3,1 5,4 5,7 l 0,2 c 7,-5 16,-7 25,-5 16,3 23,18 20,33 l -7,35 c -1,3 -1,6 -1,9 -1,3 -4,6 -7,5 -3,-1 -6,-4 -5,-7 1,-3 2,-6 2,-8 l 7,-34 z"
   class="fil6" />
      <path
   style="fill:#313131;fill-rule:nonzero"
   inkscape:connector-curvature="0"
   id="path115"
   d="m 5117,6044 c 2,0 4,2 7,2 l 1,0 2,-7 c 1,-3 1,-7 1,-9 1,-4 4,-6 7,-5 3,1 6,4 5,8 0,2 -2,5 -3,8 l -2,7 9,2 c 2,0 5,0 7,1 3,1 5,4 4,6 -1,3 -3,5 -7,4 -2,0 -5,-2 -7,-2 l -9,-2 -10,49 c -1,6 2,8 5,9 3,1 5,0 6,-1 2,-1 4,-2 6,-1 3,1 5,3 4,6 0,2 -2,4 -4,5 -4,2 -9,2 -13,1 -12,-2 -16,-10 -14,-21 l 10,-49 -1,0 c -3,-1 -5,0 -7,-1 -3,-1 -5,-3 -4,-6 1,-3 3,-5 7,-4 z"
   class="fil6" />
      <path
   style="fill:#313131;fill-rule:nonzero"
   inkscape:connector-curvature="0"
   id="path117"
   d="m 5197,6133 c 0,-2 2,-6 3,-9 l 17,-81 c 1,-3 1,-7 1,-9 1,-4 4,-6 8,-5 3,1 5,2 6,6 l 31,81 c 3,8 6,18 8,21 1,-4 2,-10 3,-16 l 13,-63 c 1,-3 1,-7 1,-9 1,-4 4,-6 8,-5 4,1 6,4 5,8 0,2 -2,6 -3,9 l -17,82 c -1,3 -1,7 -1,9 -1,4 -4,6 -8,5 -6,-1 -6,-6 -8,-12 l -37,-96 c -1,4 -1,10 -2,15 l -13,64 c -1,3 -1,7 -1,9 -1,4 -4,6 -8,5 -4,-1 -6,-4 -5,-8 z"
   class="fil6" />
      <path
   style="fill:#313131;fill-rule:nonzero"
   inkscape:connector-curvature="0"
   id="path119"
   d="m 5350,6166 c -6,4 -13,5 -22,3 -15,-3 -25,-15 -22,-29 3,-13 14,-21 32,-18 11,2 17,2 20,0 l 1,-4 c 2,-8 -3,-15 -12,-17 -7,-1 -12,1 -15,6 -1,2 -4,4 -7,3 -4,-1 -5,-4 -5,-7 0,-2 2,-4 3,-5 5,-5 13,-9 25,-6 15,3 24,15 21,29 l -9,41 c 0,1 0,1 0,2 1,0 2,0 3,0 3,1 5,4 4,6 -1,4 -5,6 -10,5 -4,-1 -8,-4 -8,-8 z m 0,-9 0,0 6,-26 c -3,2 -9,2 -19,1 -11,-1 -18,3 -20,11 -2,8 4,15 14,17 8,2 14,0 19,-3 z"
   class="fil6" />
      <path
   style="fill:#313131;fill-rule:nonzero"
   inkscape:connector-curvature="0"
   id="path121"
   d="m 5492,6152 c 3,-12 -2,-21 -13,-23 -8,-2 -17,1 -23,9 0,2 0,4 -1,6 l -7,35 c -1,3 -1,6 -1,9 -1,3 -4,6 -7,5 -3,-1 -6,-4 -5,-7 1,-3 2,-6 2,-8 l 7,-34 c 1,-3 1,-7 1,-9 -1,-7 -6,-12 -13,-14 -8,-2 -16,1 -22,8 l -9,41 c -1,3 -1,6 -1,9 -1,3 -4,6 -7,5 -3,-1 -6,-4 -5,-7 1,-3 2,-6 2,-8 l 10,-46 c 1,-3 0,-7 1,-9 1,-4 4,-6 8,-5 3,1 5,4 5,7 l -1,2 c 7,-6 15,-8 24,-6 11,2 17,9 19,19 7,-8 17,-11 27,-9 15,3 24,16 20,34 l -7,34 c -1,3 -1,6 -1,9 -1,3 -4,6 -7,5 -3,-1 -6,-4 -5,-7 1,-3 2,-6 2,-8 l 7,-34 z"
   class="fil6" />
      <path
   style="fill:#313131;fill-rule:nonzero"
   inkscape:connector-curvature="0"
   id="path123"
   d="m 5592,6178 c -1,6 -4,9 -10,7 l -48,-10 c -2,16 5,29 19,32 8,2 16,0 21,-7 1,-2 4,-3 6,-3 4,1 5,4 5,7 0,2 -2,3 -3,5 -7,7 -18,10 -31,8 -21,-4 -32,-23 -27,-47 5,-23 24,-36 43,-31 20,4 29,23 25,40 z m -56,-12 0,0 46,10 c 2,-11 -1,-26 -17,-29 -13,-3 -25,5 -29,19 z"
   class="fil6" />
     </g>
     <g
   id="g125">
      <path
   style="fill:#313131;fill-rule:nonzero"
   inkscape:connector-curvature="0"
   id="path127"
   d="m 4594,6318 c 0,-1 1,-2 1,-3 1,-2 3,-5 5,-7 l 48,-77 c 2,-2 3,-6 4,-8 2,-4 5,-4 9,-3 l 1,0 c 4,1 6,3 7,7 0,2 0,6 1,9 l 13,90 c 0,3 1,7 2,9 0,1 0,2 0,3 -1,3 -4,5 -7,4 -3,-1 -5,-3 -5,-6 0,-2 0,-6 0,-9 l -2,-17 -51,-11 -9,15 c -2,2 -3,6 -4,8 -1,2 -4,4 -7,3 -3,-1 -5,-4 -5,-7 z m 30,-28 0,0 44,9 -8,-59 c -1,-3 -1,-7 -1,-10 -1,3 -3,6 -5,9 l -31,50 z"
   class="fil6" />
      <path
   style="fill:#313131;fill-rule:nonzero"
   inkscape:connector-curvature="0"
   id="path129"
   d="m 4705,6307 c 5,-22 21,-36 41,-31 8,2 14,6 17,11 l 6,-30 c 1,-3 1,-6 1,-9 1,-3 4,-6 7,-5 3,1 6,4 5,7 -1,3 -2,6 -2,8 l -18,85 c -1,3 0,7 -1,9 -1,4 -4,6 -8,5 -3,-1 -5,-4 -4,-7 -6,4 -12,5 -19,4 -21,-4 -30,-25 -25,-47 z m 47,34 0,0 9,-43 c -3,-7 -8,-11 -16,-12 -15,-3 -25,8 -29,24 -3,16 2,33 17,36 6,1 13,0 19,-5 z"
   class="fil6" />
      <path
   style="fill:#313131;fill-rule:nonzero"
   inkscape:connector-curvature="0"
   id="path131"
   d="m 4793,6325 c 5,-22 21,-36 41,-31 8,2 14,6 17,11 l 6,-30 c 1,-3 1,-6 1,-9 1,-3 4,-6 7,-5 3,1 6,4 5,7 -1,3 -2,6 -2,8 l -18,85 c -1,3 0,7 -1,9 -1,4 -4,6 -8,5 -3,-1 -5,-4 -4,-7 -6,4 -12,5 -19,4 -21,-4 -30,-25 -25,-47 z m 47,34 0,0 9,-43 c -3,-7 -8,-11 -16,-12 -15,-3 -25,8 -29,24 -3,16 2,33 17,36 6,1 13,0 19,-5 z"
   class="fil6" />
      <path
   style="fill:#313131;fill-rule:nonzero"
   inkscape:connector-curvature="0"
   id="path133"
   d="m 4877,6378 c 1,-3 2,-6 2,-8 l 10,-46 c 1,-3 0,-7 1,-9 1,-4 4,-6 7,-5 3,1 5,4 4,7 l -1,3 c 7,-6 15,-8 21,-7 5,1 7,4 6,8 -1,3 -4,6 -8,5 -3,-1 -4,-2 -6,-3 -4,-1 -10,2 -15,8 l -9,41 c -1,3 -1,6 -1,9 -1,3 -4,6 -7,5 -3,-1 -6,-4 -5,-7 z"
   class="fil6" />
      <path
   style="fill:#313131;fill-rule:nonzero"
   inkscape:connector-curvature="0"
   id="path135"
   d="m 5002,6365 c -1,6 -4,9 -10,7 l -48,-10 c -2,16 5,29 19,32 8,2 16,0 21,-7 1,-2 4,-3 6,-3 4,1 5,4 5,7 0,2 -2,3 -3,5 -7,7 -18,10 -31,8 -21,-4 -32,-23 -27,-47 5,-23 24,-36 43,-31 20,4 29,23 25,40 z m -56,-12 0,0 46,10 c 2,-11 -1,-26 -17,-29 -13,-3 -25,5 -29,19 z"
   class="fil6" />
      <path
   style="fill:#313131;fill-rule:nonzero"
   inkscape:connector-curvature="0"
   id="path137"
   d="m 5055,6400 c 1,-6 -3,-11 -15,-17 l -3,-2 c -14,-8 -16,-18 -15,-26 2,-10 13,-18 27,-15 11,2 18,9 21,15 1,2 2,4 1,6 -1,3 -4,5 -7,4 -2,0 -4,-2 -5,-5 -1,-6 -5,-10 -12,-11 -8,-2 -14,2 -15,8 -1,5 0,10 11,16 l 2,1 c 16,9 22,16 20,29 -2,11 -14,20 -32,16 -12,-2 -20,-9 -23,-19 -1,-2 -1,-4 -1,-7 1,-3 3,-5 7,-5 3,1 5,4 5,7 -1,7 6,13 14,15 10,2 18,-1 20,-9 z"
   class="fil6" />
      <path
   style="fill:#313131;fill-rule:nonzero"
   inkscape:connector-curvature="0"
   id="path139"
   d="m 5123,6415 c 1,-6 -3,-11 -15,-17 l -3,-2 c -14,-8 -16,-18 -15,-26 2,-10 13,-18 27,-15 11,2 18,9 21,15 1,2 2,4 1,6 -1,3 -4,5 -7,4 -2,0 -4,-2 -5,-5 -1,-6 -5,-10 -12,-11 -8,-2 -14,2 -15,8 -1,5 0,10 11,16 l 2,1 c 16,9 22,16 20,29 -2,11 -14,20 -32,16 -12,-2 -20,-9 -23,-19 -1,-2 -1,-4 -1,-7 1,-3 3,-5 7,-5 3,1 5,4 5,7 -1,7 6,13 14,15 10,2 18,-1 20,-9 z"
   class="fil6" />
     </g>
     <g
   id="g141">
      <path
   style="fill:#313131;fill-rule:nonzero"
   inkscape:connector-curvature="0"
   id="path143"
   d="m 6507,6424 -740,-157 c -4,-1 -6,-4 -5,-8 1,-4 4,-6 8,-5 l 740,157 c 4,1 6,4 5,8 -1,4 -4,6 -8,5 z"
   class="fil6" />
     </g>
     <g
   id="g145">
      <path
   style="fill:#313131;fill-rule:nonzero"
   inkscape:connector-curvature="0"
   id="path147"
   d="M 6444,6722 5293,6478 c -4,-1 -6,-4 -5,-8 1,-4 4,-6 8,-5 l 1151,244 c 4,1 6,4 5,8 -1,4 -4,6 -8,5 z"
   class="fil6" />
     </g>
    </g>
    <g
   id="g149">
     <path
   style="fill:#313131;fill-rule:nonzero"
   inkscape:connector-curvature="0"
   id="path151"
   d="m 5611,10646 -2051,-435 c -4,-1 -6,-4 -5,-8 1,-4 4,-6 8,-5 l 2051,435 c 4,1 6,4 5,8 -1,4 -4,6 -8,5 z"
   class="fil6" />
    </g>
   </g>
  </g></g><g
   inkscape:groupmode="layer"
   id="layer3"
   inkscape:label="stethoscope"><g
     style="fill-rule:evenodd"
     id="g3604"
     transform="translate(576.88811,336.51807)"><path
       class="fil2"
       d="m 1128,2072 c -3,-5 -6,-11 -9,-16 0,0 0,0 0,0 -2,-5 -4,-10 -6,-15 0,-1 -1,-1 -1,-2 0,0 0,0 0,0 -27,-72 -10,-157 50,-213 l 265,-247 c 43,-40 100,-57 154,-51 24,-20 51,-38 80,-54 118,-113 243,-177 375,-191 17,-11 37,-19 58,-24 l 353,-83 c 92,-22 185,26 223,109 1,1 1,3 2,5 2,4 4,9 5,13 2,6 4,12 5,19 20,84 -18,167 -87,211 71,77 124,158 157,221 344,668 893,1580 1209,2097 40,7 77,31 99,69 7,11 163,276 298,615 188,474 236,849 143,1113 -46,131 -128,236 -240,309 129,343 531,1375 1078,2442 869,1695 1699,2703 2400,2914 291,88 557,38 812,-153 770,-574 969,-1461 594,-2636 -117,-366 -275,-706 -422,-980 -276,100 -596,39 -816,-183 -302,-304 -300,-796 4,-1098 304,-302 796,-300 1098,4 302,304 300,796 -4,1098 -10,10 -21,20 -31,29 154,287 320,644 446,1035 415,1290 175,2314 -694,2963 -225,168 -465,253 -715,253 -116,0 -234,-18 -354,-54 C 6867,11353 6001,10324 5082,8532 4529,7452 4121,6406 3990,6058 c -23,3 -48,4 -73,4 -227,0 -527,-124 -880,-556 -264,-324 -441,-673 -449,-688 -23,-46 -19,-97 5,-138 -247,-540 -716,-1545 -1090,-2224 -41,-75 -87,-189 -109,-316 -77,44 -176,31 -239,-37 -5,-5 -9,-10 -13,-15 -3,-4 -6,-8 -8,-12 -1,-1 -2,-2 -2,-3 z m 549,286 0,0 c 385,699 869,1737 1113,2271 23,14 42,33 54,59 166,329 738,1231 1183,1064 101,-38 164,-101 199,-199 142,-403 -253,-1208 -417,-1485 -19,-32 -24,-68 -17,-102 -317,-517 -873,-1442 -1221,-2119 -39,-76 -112,-175 -203,-250 l -185,43 c -72,17 -144,-8 -190,-60 -82,11 -152,31 -210,59 -11,11 -22,23 -32,35 17,67 -2,141 -56,191 l -113,105 c -4,143 46,295 97,387 z"
       id="path200"
       inkscape:connector-curvature="0"
       style="fill:#727272;fill-opacity:0.2;fill-rule:nonzero" /><g
       transform="matrix(-1,0,0,1,19445,0)"
       id="_301647168">
   <path
   class="fil6"
   d="m 10270,6031 c -302,304 -300,796 4,1098 304,302 796,300 1098,-4 302,-304 300,-796 -4,-1098 -304,-302 -796,-300 -1098,4 z"
   id="path203"
   inkscape:connector-curvature="0"
   style="fill:#313131;fill-rule:nonzero" />
   <path
   class="fil11"
   d="m 10440,6199 c -209,211 -208,551 3,759 210,209 550,208 759,-3 209,-210 208,-551 -3,-759 -211,-209 -551,-208 -759,3 z"
   id="path205"
   inkscape:connector-curvature="0"
   style="fill:#57575b;fill-rule:nonzero" />
   <path
   class="fil13"
   d="m 10627,6270 c -138,139 -137,363 2,501 139,138 363,137 501,-2 138,-139 137,-363 -2,-501 -139,-138 -363,-137 -501,2 z"
   id="path207"
   inkscape:connector-curvature="0"
   style="fill:#939393;fill-rule:nonzero" />
   <path
   class="fil14 str0"
   d="m 10849,6549 c 0,0 -2200,3003 -208,4489 2064,1541 4558,-5389 4558,-5389"
   id="path209"
   inkscape:connector-curvature="0"
   style="fill:none;stroke:#313131;stroke-width:289.8500061;stroke-linecap:round;stroke-linejoin:round" />
   <g
   id="g211">
    <path
   class="fil14 str1"
   d="m 17699,1495 c -469,-683 -943,-203 -1083,69 -512,993 -1460,2503 -1460,2503"
   id="path213"
   inkscape:connector-curvature="0"
   style="fill:none;stroke:#939393;stroke-width:202.897995;stroke-linecap:round;stroke-linejoin:round" />
    <path
   class="fil6"
   d="m 17574,1353 c 74,-79 197,-84 276,-10 l 265,247 c 79,74 84,197 10,277 -74,79 -197,84 -277,10 l -265,-247 c -79,-74 -84,-197 -10,-277 z"
   id="path215"
   inkscape:connector-curvature="0"
   style="fill:#313131;fill-rule:nonzero" />
    <g
   id="g217">
     <path
   class="fil11"
   d="m 17919,1785 -265,-247 c -60,-56 -77,-140 -50,-213 -11,8 -21,17 -31,27 -74,79 -69,203 10,277 l 265,247 c 79,74 203,69 277,-10 18,-19 31,-41 40,-64 -74,52 -177,48 -246,-17 z"
   id="path219"
   inkscape:connector-curvature="0"
   style="fill:#57575b;fill-rule:nonzero" />
    </g>
   </g>
   <path
   class="fil14 str2"
   d="m 17142,1233 c 828,9 694,670 546,937 -539,978 -1265,2607 -1265,2607"
   id="path221"
   inkscape:connector-curvature="0"
   style="fill:none;stroke:#a8a8a8;stroke-width:202.897995;stroke-linecap:round;stroke-linejoin:round" />
   <path
   class="fil6"
   d="m 17330,1258 c 25,-105 -41,-211 -146,-235 l -353,-83 c -105,-25 -211,41 -235,146 -25,105 41,211 146,235 l 353,83 c 105,25 211,-41 235,-146 z"
   id="path223"
   inkscape:connector-curvature="0"
   style="fill:#313131;fill-rule:nonzero" />
   <g
   id="g225">
    <path
   class="fil11"
   d="m 16778,1212 353,83 c 80,19 160,-14 204,-77 0,13 -2,27 -5,40 -25,105 -130,170 -235,146 l -353,-83 c -105,-25 -170,-130 -146,-235 6,-25 17,-48 31,-68 -2,91 59,173 151,195 z"
   id="path227"
   inkscape:connector-curvature="0"
   style="fill:#57575b;fill-rule:nonzero" />
   </g>
   <path
   class="fil14 str3"
   d="m 15343,3756 c 0,0 -946,1592 -145,1893 668,251 1363,-1134 1363,-1134"
   id="path229"
   inkscape:connector-curvature="0"
   style="fill:none;stroke:#57575b;stroke-width:289.8500061;stroke-linecap:round;stroke-linejoin:round" />
  </g></g></g><g
   inkscape:groupmode="layer"
   id="layer4"
   inkscape:label="pen"><g
     style="fill-rule:evenodd"
     id="g3640"
     transform="translate(-5143.9189,-7355.3234)"><path
       class="fil2"
       d="m 13398,11305 27,-59 c 6,-13 14,-24 22,-35 0,0 0,0 0,0 3,-4 6,-7 9,-10 0,0 0,0 0,0 3,-3 7,-6 10,-9 0,0 0,0 0,0 4,-4 9,-7 14,-10 0,0 0,0 0,0 5,-3 9,-6 14,-9 0,0 0,0 0,0 5,-3 10,-5 15,-7 0,0 0,0 0,0 5,-2 10,-4 16,-6 0,0 0,0 0,0 0,0 0,0 0,0 1,0 1,0 2,-1 3,-1 6,-2 10,-2 2,0 3,-1 5,-1 3,-1 6,-1 9,-1 2,0 4,-1 6,-1 0,0 0,0 0,0 0,0 0,0 0,0 3,0 5,0 8,0 0,0 0,0 0,0 0,0 0,0 0,0 2,0 5,0 7,0 0,0 0,0 0,0 0,0 0,0 0,0 2,0 5,0 7,0 0,0 0,0 0,0 0,0 0,0 0,0 3,0 5,0 8,1 2,0 5,0 7,1 3,0 6,1 9,2 2,0 4,1 6,1 3,1 6,2 10,3 2,1 3,1 5,2 5,2 10,4 15,6 l 3181,1465 c 5,2 9,5 14,7 1,0 2,1 2,1 l 7,5 c 5,3 9,7 13,10 l 351,264 c 32,15 52,46 53,80 l 62,29 c 22,10 32,37 22,59 -10,22 -37,32 -59,22 l -66,-30 c 0,0 0,0 0,0 -2,1 -4,2 -6,4 -1,0 -1,1 -2,1 -2,1 -5,2 -7,3 0,0 -1,0 -1,1 -22,9 -47,9 -71,-2 l -425,-87 c -9,-1 -17,-3 -26,-5 l -6,-1 c -1,0 -1,-1 -2,-1 -5,-2 -10,-4 -15,-6 l -1977,-910 c 0,0 0,1 -1,1 -1,1 -2,3 -3,4 -4,6 -8,11 -13,17 0,0 0,0 0,0 -46,52 -122,70 -188,40 l -784,-361 c -66,-31 -102,-100 -92,-169 1,-4 1,-8 2,-12 0,-2 1,-4 1,-6 1,-3 1,-5 2,-8 l -130,-60 c -81,-37 -116,-133 -79,-214 z"
       id="path326"
       inkscape:connector-curvature="0"
       style="fill:#727272;fill-opacity:0.2;fill-rule:nonzero" /><g
       transform="matrix(-1,0,0,1,19445,0)"
       id="_301653216">
   <path
   class="fil6"
   d="m 2149,12921 c 12,21 4,48 -18,60 l -118,64 c -21,12 -48,4 -60,-18 -12,-21 -4,-48 18,-60 l 118,-64 c 21,-12 48,-4 60,18 z"
   id="path329"
   inkscape:connector-curvature="0"
   style="fill:#313131;fill-rule:nonzero" />
   <path
   class="fil25"
   d="m 5517,10858 -3072,1681 c -5,3 -9,5 -13,8 -1,0 -2,1 -2,1 l -6,5 c -4,3 -9,7 -13,11 l -332,288 c -44,24 -60,79 -36,123 24,44 79,60 123,36 l 418,-116 c 9,-2 17,-4 25,-7 l 6,-2 c 1,0 1,-1 2,-1 5,-2 9,-4 14,-7 l 3072,-1681 c 78,-43 107,-141 64,-219 l -31,-57 c -43,-78 -141,-107 -219,-64 z"
   id="path331"
   inkscape:connector-curvature="0"
   style="fill:#3467b1;fill-rule:nonzero" />
   <path
   class="fil6"
   d="m 5517,10858 -244,134 c 3,17 9,34 17,50 l 124,226 c 13,24 32,44 54,58 l 235,-128 c 78,-43 107,-141 64,-219 l -31,-57 c -43,-78 -141,-107 -219,-64 z"
   id="path333"
   inkscape:connector-curvature="0"
   style="fill:#313131;fill-rule:nonzero" />
   <g
   id="g335">
    <path
   class="fil27"
   d="m 2141,12900 332,-288 c 4,-4 8,-8 13,-11 l 6,-5 c 1,0 2,-1 2,-1 4,-3 9,-6 13,-8 l 3072,-1681 c 45,-25 97,-25 140,-7 -48,-61 -134,-80 -204,-41 l -3072,1681 c -5,3 -9,5 -13,8 -1,0 -2,1 -2,1 l -6,5 c -4,3 -9,7 -13,11 l -332,288 c -44,24 -60,79 -36,123 13,25 36,40 62,45 -22,-43 -6,-97 37,-120 z"
   id="path337"
   inkscape:connector-curvature="0"
   style="fill:#3f77bc;fill-rule:nonzero" />
   </g>
   <path
   class="fil11"
   d="m 5300,11059 280,-153 c 45,-25 97,-25 140,-7 -3,-4 -6,-7 -9,-11 0,0 0,0 0,-1 -3,-3 -6,-6 -10,-9 0,0 0,0 -1,-1 -3,-3 -7,-6 -10,-8 0,0 0,0 0,0 -18,-13 -39,-23 -61,-28 -1,0 -1,0 -2,-1 -3,-1 -6,-1 -10,-2 -2,0 -3,-1 -5,-1 -3,0 -6,0 -8,-1 -2,0 -4,0 -7,0 -3,0 -5,0 -8,0 -2,0 -5,0 -7,0 -2,0 -5,0 -7,1 -3,0 -5,1 -8,1 -2,0 -4,1 -7,1 -3,1 -6,1 -9,2 -2,1 -4,1 -6,2 -3,1 -6,2 -10,3 -2,1 -3,1 -5,2 -5,2 -9,4 -14,7 l -244,134 c 3,17 9,34 17,50 l 10,18 z"
   id="path339"
   inkscape:connector-curvature="0"
   style="fill:#57575b;fill-rule:nonzero" />
   <path
   class="fil6"
   d="m 5568,11247 c 43,78 14,176 -64,219 l -757,414 c -78,43 -176,14 -219,-64 l -6,-10 c -43,-78 -14,-176 64,-219 l 757,-414 c 78,-43 176,-14 219,64 l 6,10 z"
   id="path341"
   inkscape:connector-curvature="0"
   style="fill:#313131;fill-rule:nonzero" />
   <g
   id="g343">
    <path
   class="fil11"
   d="m 5563,11237 c -43,-78 -141,-107 -219,-64 l -757,414 c -78,43 -107,141 -64,219 l 6,10 c 8,14 17,27 28,38 -14,-68 16,-140 80,-175 l 757,-414 c 64,-35 141,-22 190,26 -3,-15 -9,-30 -16,-44 l -6,-10 z"
   id="path345"
   inkscape:connector-curvature="0"
   style="fill:#57575b;fill-rule:nonzero" />
   </g>
  </g></g></g></svg>